<?xml version="1.0" encoding="UTF-8" standalone="no"?>
<!-- Generator: Adobe Illustrator 24.0.2, SVG Export Plug-In . SVG Version: 6.00 Build 0)  -->

<svg
   version="1.1"
   id="Layer_1"
   x="0px"
   y="0px"
   viewBox="0 0 8192 5680.2"
   style="enable-background:new 0 0 8192 5680.2;"
   xml:space="preserve"
   sodipodi:docname="CoupeRobotique.svg"
   inkscape:version="1.4 (86a8ad7, 2024-10-11)"
   inkscape:export-filename="CoupeRobotique.png"
   inkscape:export-xdpi="48"
   inkscape:export-ydpi="48"
   xmlns:inkscape="http://www.inkscape.org/namespaces/inkscape"
   xmlns:sodipodi="http://sodipodi.sourceforge.net/DTD/sodipodi-0.dtd"
   xmlns:xlink="http://www.w3.org/1999/xlink"
   xmlns="http://www.w3.org/2000/svg"
   xmlns:svg="http://www.w3.org/2000/svg"><defs
   id="defs144" /><sodipodi:namedview
   id="namedview144"
   pagecolor="#505050"
   bordercolor="#eeeeee"
   borderopacity="1"
   inkscape:showpageshadow="0"
   inkscape:pageopacity="0"
   inkscape:pagecheckerboard="0"
   inkscape:deskcolor="#505050"
   inkscape:zoom="0.10643574"
   inkscape:cx="4429.9031"
   inkscape:cy="1874.3704"
   inkscape:window-width="1920"
   inkscape:window-height="1057"
   inkscape:window-x="-8"
   inkscape:window-y="-8"
   inkscape:window-maximized="1"
   inkscape:current-layer="Layer_1" />
<style
   type="text/css"
   id="style1">
	.st0{fill:#05050A;}
	.st1{fill:#F7B500;}
	.st2{fill:#005B8C;}
	.st3{opacity:0.2;}
	.st4{clip-path:url(#SVGID_2_);}
	.st5{fill:#015A8A;}
	.st6{clip-path:url(#SVGID_4_);}
	.st7{fill-rule:evenodd;clip-rule:evenodd;fill:#005B8C;}
	.st8{clip-path:url(#SVGID_6_);}
	.st9{clip-path:url(#SVGID_8_);}
	.st10{fill-rule:evenodd;clip-rule:evenodd;fill:#F7B500;}
	.st11{clip-path:url(#SVGID_10_);}
	.st12{fill:#787878;}
	.st13{fill:#C8C8C8;}
	.st14{fill:none;stroke:#787878;stroke-width:7.6987;stroke-miterlimit:10.5087;}
	.st15{fill:#FFFFFF;}
	.st16{fill-rule:evenodd;clip-rule:evenodd;fill:#FFFFFF;}
	.st17{opacity:0.45;}
	.st18{fill:none;}
	.st19{opacity:0.1;}
	.st20{opacity:0.46;}
</style>
<title
   id="title1">ThisIsTheRightSize1</title>
<rect
   x="3.6"
   y="112"
   class="st0"
   width="8183.6"
   height="5455.7"
   id="rect1" />
<path
   class="st1"
   d="M8192,4071.9H6957.3V2837.2H8192V4071.9z M6966.9,4062.3h1215.4V2846.8H6966.9V4062.3z"
   id="path1" />
<path
   class="st2"
   d="M8190.6,2569.8h-413.4v-1232h413.4V2569.8z M7786.8,2560.2h394.1V1347.4h-394.1L7786.8,2560.2z"
   id="path2" />
<path
   class="st1"
   d="M414.8,2569.8H1.4v-1232h413.4V2569.8z M11.1,2560.2h394.1V1347.4H11.1V2560.2z"
   id="path3" />
<path
   class="st2"
   d="M3963.1,5572.6H2728.5v-416.2h1234.7V5572.6z M2738.1,5562.9h1215.4v-397H2738.1V5562.9z"
   id="path4" />
<path
   class="st1"
   d="M5463.6,5572.6H4229v-416.2h1234.7V5572.6z M4238.6,5562.9H5454v-397H4238.6V5562.9z"
   id="path5" />
<path
   class="st2"
   d="M8192,5572.6H6957.3V4337.8H8192V5572.6z M6966.9,5562.9h1215.4V4347.4H6966.9V5562.9z"
   id="path6" />
<path
   class="st2"
   d="M7781.3,1341.9H6549.4V109.9h1231.9V1341.9z M6559,1332.2h1212.6V119.5H6559V1332.2z"
   id="path7" />
<path
   class="st1"
   d="M1234.7,5572.5H0V4337.7h1234.7V5572.5z M9.6,5562.8h1215.4V4347.3H9.6L9.6,5562.8z"
   id="path8" />
<path
   class="st1"
   d="M1642.6,1341.9H410.7V109.9h1231.9L1642.6,1341.9z M420.3,1332.2H1633V119.5H420.3L420.3,1332.2z"
   id="path9" />
<path
   class="st1"
   d="M2871.7,2025.4H0.1V108.6h2871.6L2871.7,2025.4z M9.7,2015.8H2862V118.2H9.7L9.7,2015.8z"
   id="path10" />
<path
   class="st2"
   d="M8191.9,2025.4H5320.3V108.6h2871.6V2025.4z M5329.9,2015.8h2852.4V118.2H5329.9V2015.8z"
   id="path11" />
<rect
   x="5364.6"
   y="1332.4"
   class="st2"
   width="1189.3"
   height="9.6"
   id="rect11" />
<path
   class="st2"
   d="M1234.8,4071.9H0.1V2837.2h1234.7V4071.9z M9.7,4062.3h1215.4V2846.8H9.7L9.7,4062.3z"
   id="path12" />
<g
   class="st3"
   id="g12">
	<rect
   x="6961.9"
   y="2840.5"
   class="st1"
   width="1225.1"
   height="1225.1"
   id="rect12" />
</g>
<g
   class="st3"
   id="g13">
	<rect
   x="6"
   y="1341.1"
   class="st1"
   width="403.8"
   height="1222.4"
   id="rect13" />
</g>
<g
   class="st3"
   id="g14">
	<rect
   x="4233.5"
   y="5159.7"
   class="st1"
   width="1225.1"
   height="406.6"
   id="rect14" />
</g>
<g
   class="st3"
   id="g15">
	<rect
   x="4.6"
   y="4341"
   class="st1"
   width="1225.1"
   height="1225.1"
   id="rect15" />
</g>
<g
   class="st3"
   id="g16">
	<rect
   x="7782.3"
   y="1340.3"
   class="st2"
   width="403.8"
   height="1222.4"
   id="rect16" />
</g>
<g
   class="st3"
   id="g17">
	<rect
   x="2733.6"
   y="5158.9"
   class="st2"
   width="1225.1"
   height="406.6"
   id="rect17" />
</g>
<g
   class="st3"
   id="g18">
	<rect
   x="6962.5"
   y="4340.3"
   class="st2"
   width="1225.1"
   height="1225.1"
   id="rect18" />
</g>
<g
   class="st3"
   id="g19">
	<rect
   x="5.2"
   y="2839.7"
   class="st2"
   width="1225.1"
   height="1225.1"
   id="rect19" />
</g>
<g
   id="g21">
	<defs
   id="defs19">
		<polygon
   id="SVGID_1_"
   points="6551.5,112 6592.4,112 6592.4,112   " />
	</defs>
	<clipPath
   id="SVGID_2_">
		<use
   xlink:href="#SVGID_1_"
   style="overflow:visible;"
   id="use19" />
	</clipPath>
	<g
   class="st4"
   clip-path="url(#SVGID_2_)"
   id="g20">
		<path
   class="st5"
   d="M6551.5,112L6551.5,112z"
   id="path19" />
	</g>
</g>
<g
   id="g23">
	<defs
   id="defs21">
		<polygon
   id="SVGID_3_"
   points="7738.3,112 7779.2,112 7779.2,112   " />
	</defs>
	<clipPath
   id="SVGID_4_">
		<use
   xlink:href="#SVGID_3_"
   style="overflow:visible;"
   id="use21" />
	</clipPath>
	<g
   class="st6"
   clip-path="url(#SVGID_4_)"
   id="g22">
		<path
   class="st5"
   d="M7738.3,112L7738.3,112z"
   id="path21" />
	</g>
</g>
<polygon
   class="st7"
   points="6586.8,112 7744.7,112 7744.7,112 "
   id="polygon23" />
<g
   id="g25">
	<defs
   id="defs23">
		<polygon
   id="SVGID_5_"
   points="412.8,112.1 453.7,112.1 453.7,112.1   " />
	</defs>
	<clipPath
   id="SVGID_6_">
		<use
   xlink:href="#SVGID_5_"
   style="overflow:visible;"
   id="use23" />
	</clipPath>
	<g
   class="st8"
   clip-path="url(#SVGID_6_)"
   id="g24">
		<path
   class="st1"
   d="M412.8,112.1L412.8,112.1z"
   id="path23" />
	</g>
</g>
<g
   id="g27">
	<defs
   id="defs25">
		<polygon
   id="SVGID_7_"
   points="1599.6,112 1640.5,112 1640.5,112   " />
	</defs>
	<clipPath
   id="SVGID_8_">
		<use
   xlink:href="#SVGID_7_"
   style="overflow:visible;"
   id="use25" />
	</clipPath>
	<g
   class="st9"
   clip-path="url(#SVGID_8_)"
   id="g26">
		<path
   class="st1"
   d="M1599.6,112L1599.6,112z"
   id="path25" />
	</g>
</g>
<polygon
   class="st10"
   points="453.2,112 1601.1,112 1601.1,112 "
   id="polygon27" />
<g
   id="g31">
	<defs
   id="defs27">
		<polygon
   id="SVGID_9_"
   points="1231.3,4068.4 3.6,4068.4 3.6,4068.4   " />
	</defs>
	<clipPath
   id="SVGID_10_">
		<use
   xlink:href="#SVGID_9_"
   style="overflow:visible;"
   id="use27" />
	</clipPath>
	<g
   class="st11"
   clip-path="url(#SVGID_10_)"
   id="g30">
		<path
   class="st2"
   d="M359.7,4068.4"
   id="path27" />
		<path
   class="st2"
   d="M654.7,4068.4"
   id="path28" />
		<path
   class="st5"
   d="M949.7,4068.4"
   id="path29" />
		<path
   class="st5"
   d="M949.7,4068.4"
   id="path30" />
	</g>
</g>
<rect
   x="1640.6"
   y="1332.3"
   class="st1"
   width="1189.3"
   height="9.6"
   id="rect31" />
<path
   class="st12"
   d="M4096,5573.2l-35.1-60.8h19.4v-81.8h31.4v81.8h19.4L4096,5573.2z M4077.6,5522l18.4,31.9l18.4-31.9h-12.3  v-81.8H4090v81.8H4077.6z"
   id="path31" />
<path
   class="st12"
   d="M685.1,2807.5c-57.8,0-104.7-46.9-104.7-104.7c0-57.8,46.9-104.7,104.7-104.7c57.8,0,104.7,46.8,104.7,104.6  C789.7,2760.6,742.9,2807.4,685.1,2807.5z M685.1,2605.6c-53.7,0-97.3,43.5-97.3,97.3s43.5,97.3,97.3,97.3s97.3-43.5,97.3-97.3  C782.3,2649.1,738.8,2605.6,685.1,2605.6L685.1,2605.6z"
   id="path32" />
<path
   class="st12"
   d="M412.3,2807.5c-57.8,0-104.7-46.9-104.7-104.7c0-57.8,46.9-104.7,104.7-104.7s104.7,46.9,104.7,104.7  C516.9,2760.6,470,2807.4,412.3,2807.5z M412.3,2605.6c-53.7,0-97.3,43.5-97.3,97.3s43.5,97.3,97.3,97.3s97.3-43.5,97.3-97.3  C509.5,2649.1,466,2605.6,412.3,2605.6L412.3,2605.6z"
   id="path33" />
<path
   class="st12"
   d="M139.4,2807.5c-57.8,0-104.7-46.9-104.7-104.7c0-57.8,46.9-104.7,104.7-104.7s104.7,46.9,104.7,104.7  C244,2760.6,197.2,2807.4,139.4,2807.5z M139.4,2605.6c-53.7,0-97.2,43.6-97.2,97.3c0,53.7,43.6,97.2,97.3,97.2  c53.7,0,97.2-43.5,97.2-97.3C236.6,2649.1,193.1,2605.6,139.4,2605.6L139.4,2605.6z"
   id="path34" />
<path
   class="st12"
   d="M957.9,2807.5c-57.8,0-104.7-46.9-104.7-104.7c0-57.8,46.9-104.7,104.7-104.7s104.7,46.9,104.7,104.7l0,0  C1062.5,2760.6,1015.7,2807.4,957.9,2807.5z M957.9,2605.6c-53.7,0-97.3,43.5-97.3,97.3s43.5,97.3,97.3,97.3s97.3-43.5,97.3-97.3  C1055.1,2649.1,1011.6,2605.6,957.9,2605.6L957.9,2605.6z"
   id="path35" />
<path
   class="st12"
   d="M685.1,4308c-57.8,0-104.7-46.9-104.7-104.7s46.9-104.7,104.7-104.7s104.7,46.9,104.7,104.7c0,0,0,0,0,0  C789.7,4261.2,742.9,4308,685.1,4308z M685.1,4106.1c-53.7,0-97.3,43.5-97.3,97.3c0,53.7,43.5,97.3,97.3,97.3s97.3-43.5,97.3-97.3  C782.3,4149.7,738.8,4106.2,685.1,4106.1z"
   id="path36" />
<path
   class="st12"
   d="M412.3,4308c-57.8,0-104.7-46.9-104.7-104.7c0-57.8,46.9-104.7,104.7-104.7s104.7,46.9,104.7,104.7  c0,0,0,0,0,0C516.9,4261.2,470,4308,412.3,4308z M412.3,4106.1c-53.7,0-97.3,43.5-97.3,97.3c0,53.7,43.5,97.3,97.3,97.3  s97.3-43.5,97.3-97.3C509.4,4149.7,465.9,4106.2,412.3,4106.1z"
   id="path37" />
<path
   class="st12"
   d="M139.4,4308c-57.8,0-104.7-46.9-104.7-104.7c0-57.8,46.9-104.7,104.7-104.7s104.7,46.9,104.7,104.7  c0,0,0,0,0,0C244,4261.2,197.2,4308,139.4,4308z M139.4,4106.1c-53.7,0-97.2,43.6-97.2,97.3c0,53.7,43.6,97.2,97.3,97.2  c53.7,0,97.2-43.5,97.2-97.3C236.6,4149.7,193.1,4106.2,139.4,4106.1z"
   id="path38" />
<path
   class="st12"
   d="M957.9,4308c-57.8,0-104.7-46.9-104.7-104.7c0-57.8,46.9-104.7,104.7-104.7s104.7,46.9,104.7,104.7  c0,0,0,0,0,0C1062.5,4261.2,1015.7,4308,957.9,4308z M957.9,4106.1c-53.7,0-97.3,43.5-97.3,97.3c0,53.7,43.5,97.3,97.3,97.3  s97.3-43.5,97.3-97.3C1055.1,4149.7,1011.6,4106.2,957.9,4106.1z"
   id="path39" />
<path
   class="st12"
   d="M2594.8,3080.3c-57.8,0-104.7-46.9-104.7-104.7S2537,2871,2594.8,2871s104.7,46.9,104.7,104.7  C2699.4,3033.4,2652.6,3080.3,2594.8,3080.3z M2594.8,2878.4c-53.7,0-97.2,43.6-97.2,97.3s43.6,97.2,97.3,97.2  c53.7,0,97.2-43.5,97.2-97.3C2692,2922,2648.5,2878.4,2594.8,2878.4z"
   id="path40" />
<path
   class="st12"
   d="M3413.3,3080.3c-57.8,0-104.7-46.9-104.7-104.7c0-57.8,46.9-104.7,104.7-104.7c57.8,0,104.7,46.9,104.7,104.7  C3517.9,3033.4,3471.1,3080.3,3413.3,3080.3z M3413.3,2878.4c-53.7,0-97.3,43.5-97.3,97.3c0,53.7,43.5,97.3,97.3,97.3  c53.7,0,97.3-43.5,97.3-97.3C3510.5,2922,3467,2878.4,3413.3,2878.4z"
   id="path41" />
<path
   class="st12"
   d="M4777.4,3080.3c-57.8,0-104.7-46.9-104.7-104.7s46.9-104.7,104.7-104.7c57.8,0,104.7,46.9,104.7,104.7  c0,0,0,0,0,0C4882,3033.4,4835.2,3080.2,4777.4,3080.3z M4777.4,2878.4c-53.7,0-97.3,43.5-97.3,97.3s43.5,97.3,97.3,97.3  c53.7,0,97.3-43.5,97.3-97.3C4874.6,2922,4831.1,2878.4,4777.4,2878.4z"
   id="path42" />
<path
   class="st12"
   d="M5595.9,3080.3c-57.8,0-104.7-46.9-104.7-104.7s46.9-104.7,104.7-104.7c57.8,0,104.7,46.9,104.7,104.7  C5700.5,3033.4,5653.7,3080.3,5595.9,3080.3z M5595.9,2878.4c-53.7,0-97.3,43.5-97.3,97.3s43.5,97.3,97.3,97.3  c53.7,0,97.3-43.5,97.3-97.3C5693.1,2922,5649.6,2878.4,5595.9,2878.4z"
   id="path43" />
<path
   class="st12"
   d="M2185.6,5535.8c-57.8,0-104.7-46.9-104.7-104.7c0-57.8,46.9-104.7,104.7-104.7c57.8,0,104.7,46.9,104.7,104.7  c0,0,0,0,0,0C2290.2,5488.9,2243.4,5535.7,2185.6,5535.8z M2185.6,5333.8c-53.7,0-97.3,43.5-97.3,97.3c0,53.7,43.5,97.3,97.3,97.3  c53.7,0,97.3-43.5,97.3-97.3C2282.8,5377.4,2239.3,5333.9,2185.6,5333.8L2185.6,5333.8z"
   id="path44" />
<path
   class="st12"
   d="M1912.8,5535.8c-57.8,0-104.7-46.9-104.7-104.7s46.9-104.7,104.7-104.7s104.7,46.9,104.7,104.7  C2017.4,5488.9,1970.6,5535.7,1912.8,5535.8z M1912.8,5333.8c-53.7,0-97.3,43.5-97.3,97.3c0,53.7,43.5,97.3,97.3,97.3  s97.3-43.5,97.3-97.3C2010,5377.4,1966.5,5333.9,1912.8,5333.8L1912.8,5333.8z"
   id="path45" />
<path
   class="st12"
   d="M1640,5535.8c-57.8,0-104.7-46.9-104.7-104.7s46.9-104.7,104.7-104.7s104.7,46.9,104.7,104.7  C1744.6,5488.9,1697.8,5535.7,1640,5535.8z M1640,5333.8c-53.7,0-97.3,43.5-97.3,97.3c0,53.7,43.5,97.3,97.3,97.3  s97.3-43.5,97.3-97.3C1737.2,5377.4,1693.7,5333.9,1640,5333.8L1640,5333.8z"
   id="path46" />
<path
   class="st12"
   d="M2458.5,5535.8c-57.8,0-104.7-46.9-104.7-104.7s46.9-104.7,104.7-104.7s104.7,46.9,104.7,104.7  C2563.1,5488.9,2516.3,5535.7,2458.5,5535.8z M2458.5,5333.8c-53.7,0-97.2,43.6-97.2,97.3c0,53.7,43.6,97.2,97.3,97.2  c53.7,0,97.2-43.5,97.2-97.3C2555.7,5377.4,2512.2,5333.9,2458.5,5333.8L2458.5,5333.8z"
   id="path47" />
<path
   class="st12"
   d="M6278,5535.8c-57.8,0-104.7-46.9-104.7-104.7s46.9-104.7,104.7-104.7c57.8,0,104.7,46.9,104.7,104.7  C6382.6,5488.9,6335.8,5535.7,6278,5535.8z M6278,5333.8c-53.7,0-97.3,43.5-97.3,97.3c0,53.7,43.5,97.3,97.3,97.3  c53.7,0,97.3-43.5,97.3-97.3C6375.2,5377.4,6331.7,5333.9,6278,5333.8L6278,5333.8z"
   id="path48" />
<path
   class="st12"
   d="M6005.1,5535.8c-57.8,0-104.7-46.9-104.7-104.7s46.9-104.7,104.7-104.7c57.8,0,104.7,46.9,104.7,104.7  C6109.8,5488.9,6062.9,5535.7,6005.1,5535.8z M6005.1,5333.8c-53.7,0-97.3,43.5-97.3,97.3c0,53.7,43.5,97.3,97.3,97.3  c53.7,0,97.3-43.5,97.3-97.3C6102.3,5377.4,6058.8,5333.9,6005.1,5333.8L6005.1,5333.8z"
   id="path49" />
<path
   class="st12"
   d="M5732.4,5535.8c-57.8,0-104.7-46.9-104.7-104.7s46.9-104.7,104.7-104.7c57.8,0,104.7,46.9,104.7,104.7  C5837,5488.9,5790.2,5535.7,5732.4,5535.8z M5732.4,5333.8c-53.7,0-97.3,43.5-97.3,97.3c0,53.7,43.5,97.3,97.3,97.3  c53.7,0,97.3-43.5,97.3-97.3C5829.6,5377.4,5786.1,5333.9,5732.4,5333.8L5732.4,5333.8z"
   id="path50" />
<path
   class="st12"
   d="M6550.8,5535.8c-57.8,0-104.7-46.9-104.7-104.7s46.9-104.7,104.7-104.7c57.8,0,104.7,46.9,104.7,104.7  C6655.4,5488.9,6608.6,5535.7,6550.8,5535.8z M6550.8,5333.8c-53.7,0-97.3,43.5-97.3,97.3c0,53.7,43.5,97.3,97.3,97.3  c53.7,0,97.3-43.5,97.3-97.3C6648,5377.4,6604.5,5333.9,6550.8,5333.8L6550.8,5333.8z"
   id="path51" />
<path
   class="st12"
   d="M7778.5,2807.5c-57.8,0-104.7-46.9-104.7-104.7s46.9-104.7,104.7-104.7c57.8,0,104.7,46.8,104.7,104.6  C7883.1,2760.6,7836.3,2807.4,7778.5,2807.5z M7778.5,2605.6c-53.7,0-97.3,43.5-97.3,97.3c0,53.7,43.5,97.3,97.3,97.3  c53.7,0,97.3-43.5,97.3-97.3C7875.7,2649.1,7832.2,2605.6,7778.5,2605.6L7778.5,2605.6z"
   id="path52" />
<path
   class="st12"
   d="M7505.7,2807.5c-57.8,0-104.7-46.9-104.7-104.7c0-57.8,46.9-104.7,104.7-104.7c57.8,0,104.7,46.9,104.7,104.7  C7610.3,2760.6,7563.5,2807.4,7505.7,2807.5z M7505.7,2605.6c-53.7,0-97.2,43.6-97.2,97.3c0,53.7,43.6,97.2,97.3,97.2  c53.7,0,97.2-43.5,97.2-97.3C7602.9,2649.1,7559.4,2605.6,7505.7,2605.6L7505.7,2605.6z"
   id="path53" />
<path
   class="st12"
   d="M7232.9,2807.5c-57.8,0-104.7-46.8-104.7-104.6c0-57.8,46.8-104.7,104.6-104.7c57.8,0,104.7,46.8,104.7,104.6  C7337.5,2760.6,7290.7,2807.4,7232.9,2807.5z M7232.9,2605.6c-53.7,0-97.3,43.5-97.3,97.3c0,53.7,43.5,97.3,97.3,97.3  c53.7,0,97.3-43.5,97.3-97.3C7330.1,2649.1,7286.6,2605.6,7232.9,2605.6L7232.9,2605.6z"
   id="path54" />
<path
   class="st12"
   d="M8051.3,2807.5c-57.8,0-104.7-46.9-104.7-104.7s46.9-104.7,104.7-104.7S8156,2645,8156,2702.8c0,0,0,0,0,0  C8156,2760.6,8109.1,2807.4,8051.3,2807.5z M8051.3,2605.6c-53.7,0-97.3,43.5-97.3,97.3s43.5,97.3,97.3,97.3  c53.7,0,97.3-43.5,97.3-97.3v0C8148.6,2649.1,8105,2605.6,8051.3,2605.6L8051.3,2605.6z"
   id="path55" />
<path
   class="st12"
   d="M7778.5,4308c-57.8,0-104.7-46.9-104.7-104.7s46.9-104.7,104.7-104.7c57.8,0,104.7,46.9,104.7,104.7  c0,0,0,0,0,0C7883.1,4261.1,7836.3,4308,7778.5,4308z M7778.5,4106.1c-53.7,0-97.3,43.5-97.3,97.3c0,53.7,43.5,97.3,97.3,97.3  c53.7,0,97.3-43.5,97.3-97.3C7875.7,4149.7,7832.2,4106.2,7778.5,4106.1z"
   id="path56" />
<path
   class="st12"
   d="M7505.7,4308c-57.8,0-104.7-46.9-104.7-104.7s46.9-104.7,104.7-104.7c57.8,0,104.7,46.9,104.7,104.7  c0,0,0,0,0,0C7610.3,4261.2,7563.5,4308,7505.7,4308z M7505.7,4106.1c-53.7,0-97.2,43.6-97.2,97.3c0,53.7,43.6,97.2,97.3,97.2  c53.7,0,97.2-43.5,97.2-97.3C7602.9,4149.7,7559.4,4106.2,7505.7,4106.1z"
   id="path57" />
<path
   class="st12"
   d="M7232.9,4308c-57.8,0-104.7-46.8-104.7-104.6c0-57.8,46.8-104.7,104.6-104.7c57.8,0,104.7,46.8,104.7,104.6  c0,0,0,0,0,0C7337.4,4261.1,7290.6,4307.9,7232.9,4308z M7232.9,4106.1c-53.7,0-97.3,43.5-97.3,97.3c0,53.7,43.5,97.3,97.3,97.3  c53.7,0,97.3-43.5,97.3-97.3C7330.1,4149.7,7286.6,4106.2,7232.9,4106.1z"
   id="path58" />
<path
   class="st12"
   d="M8051.3,4308c-57.8,0-104.7-46.9-104.7-104.7s46.9-104.7,104.7-104.7c57.8,0,104.7,46.9,104.7,104.7  c0,0,0,0,0,0C8155.9,4261.2,8109.1,4308,8051.3,4308z M8051.3,4106.1c-53.7,0-97.3,43.5-97.3,97.3c0,53.7,43.5,97.3,97.3,97.3  c53.7,0,97.3-43.5,97.3-97.3c0,0,0,0,0,0C8148.5,4149.7,8105,4106.2,8051.3,4106.1z"
   id="path59" />
<path
   class="st12"
   d="M2458.5,897.7c-57.8,0-104.7-46.9-104.7-104.7s46.9-104.7,104.7-104.7s104.7,46.9,104.7,104.7  C2563.1,850.8,2516.3,897.7,2458.5,897.7z M2458.5,695.8c-53.7,0-97.2,43.6-97.2,97.3c0,53.7,43.6,97.2,97.3,97.2  c53.7,0,97.2-43.5,97.2-97.3C2555.7,739.4,2512.2,695.9,2458.5,695.8z"
   id="path60" />
<path
   class="st12"
   d="M2185.6,897.7c-57.8,0-104.7-46.9-104.7-104.7c0-57.8,46.9-104.7,104.7-104.7s104.7,46.9,104.7,104.7  c0,0,0,0,0,0C2290.2,850.8,2243.4,897.7,2185.6,897.7z M2185.6,695.8c-53.7,0-97.3,43.5-97.3,97.3c0,53.7,43.5,97.3,97.3,97.3  c53.7,0,97.3-43.5,97.3-97.3C2282.8,739.4,2239.3,695.9,2185.6,695.8z"
   id="path61" />
<path
   class="st12"
   d="M1912.8,897.7c-57.8,0-104.7-46.9-104.7-104.7s46.9-104.7,104.7-104.7s104.7,46.9,104.7,104.7  C2017.4,850.8,1970.6,897.7,1912.8,897.7z M1912.8,695.8c-53.7,0-97.3,43.5-97.3,97.3c0,53.7,43.5,97.3,97.3,97.3  s97.3-43.5,97.3-97.3C2010,739.4,1966.5,695.9,1912.8,695.8z"
   id="path62" />
<path
   class="st12"
   d="M2731.2,897.7c-57.8,0-104.7-46.9-104.7-104.7s46.9-104.7,104.7-104.7c57.8,0,104.7,46.9,104.7,104.7  C2835.8,850.8,2789,897.7,2731.2,897.7z M2731.2,695.8c-53.7,0-97.3,43.5-97.3,97.3c0,53.7,43.5,97.3,97.3,97.3s97.3-43.5,97.3-97.3  C2828.4,739.4,2784.9,695.9,2731.2,695.8z"
   id="path63" />
<path
   class="st12"
   d="M6005.1,897.7c-57.8,0-104.7-46.9-104.7-104.7s46.9-104.7,104.7-104.7c57.8,0,104.7,46.9,104.7,104.7  C6109.7,850.8,6062.9,897.7,6005.1,897.7z M6005.1,695.8c-53.7,0-97.3,43.5-97.3,97.3c0,53.7,43.5,97.3,97.3,97.3  c53.7,0,97.3-43.5,97.3-97.3C6102.3,739.4,6058.8,695.9,6005.1,695.8z"
   id="path64" />
<path
   class="st12"
   d="M5732.4,897.7c-57.8,0-104.7-46.9-104.7-104.7s46.9-104.7,104.7-104.7c57.8,0,104.7,46.9,104.7,104.7  C5837,850.8,5790.2,897.7,5732.4,897.7z M5732.4,695.8c-53.7,0-97.3,43.5-97.3,97.3c0,53.7,43.5,97.3,97.3,97.3  c53.7,0,97.3-43.5,97.3-97.3C5829.6,739.4,5786.1,695.9,5732.4,695.8z"
   id="path65" />
<path
   class="st12"
   d="M5459.5,897.7c-57.8,0-104.7-46.9-104.7-104.7s46.9-104.7,104.7-104.7c57.8,0,104.7,46.9,104.7,104.7  C5564.1,850.8,5517.3,897.7,5459.5,897.7z M5459.5,695.8c-53.7,0-97.3,43.5-97.3,97.3c0,53.7,43.5,97.3,97.3,97.3  c53.7,0,97.3-43.5,97.3-97.3C5556.7,739.4,5513.2,695.9,5459.5,695.8z"
   id="path66" />
<path
   class="st12"
   d="M6278,897.7c-57.8,0-104.7-46.9-104.6-104.7c0-57.8,46.9-104.7,104.7-104.6c57.8,0,104.6,46.9,104.6,104.7  C6382.6,850.9,6335.8,897.7,6278,897.7z M6278,695.8c-53.7,0-97.3,43.5-97.3,97.3c0,53.7,43.5,97.3,97.3,97.3  c53.7,0,97.3-43.5,97.3-97.3C6375.2,739.4,6331.7,695.9,6278,695.8z"
   id="path67" />
<path
   class="st12"
   d="M3144.6,3084.4c-57.8,0-104.7-46.9-104.7-104.7s46.9-104.7,104.7-104.7s104.7,46.9,104.7,104.7  C3249.2,3037.5,3202.4,3084.3,3144.6,3084.4z M3144.6,2882.4c-53.7,0-97.3,43.5-97.3,97.2c0,53.7,43.5,97.3,97.2,97.3  c53.7,0,97.3-43.5,97.3-97.2c0,0,0,0,0-0.1C3241.7,2926,3198.3,2882.5,3144.6,2882.4L3144.6,2882.4z"
   id="path68" />
<path
   class="st12"
   d="M2871.7,3084.4c-57.8,0-104.7-46.9-104.7-104.7s46.9-104.7,104.7-104.7s104.7,46.9,104.7,104.7  C2976.3,3037.5,2929.5,3084.3,2871.7,3084.4z M2871.7,2882.4c-53.7,0-97.3,43.5-97.3,97.3c0,53.7,43.5,97.3,97.3,97.3  c53.7,0,97.3-43.5,97.3-97.3C2968.9,2926,2925.4,2882.5,2871.7,2882.4L2871.7,2882.4z"
   id="path69" />
<path
   class="st12"
   d="M5327.2,3084.4c-57.8,0-104.7-46.9-104.7-104.7s46.9-104.7,104.7-104.7c57.8,0,104.7,46.9,104.7,104.7  C5431.8,3037.5,5385,3084.3,5327.2,3084.4z M5327.2,2882.4c-53.7,0-97.3,43.5-97.3,97.3s43.5,97.3,97.3,97.3  c53.7,0,97.3-43.5,97.3-97.3C5424.4,2926,5380.9,2882.5,5327.2,2882.4L5327.2,2882.4z"
   id="path70" />
<path
   class="st12"
   d="M5054.3,3084.4c-57.8,0-104.7-46.9-104.7-104.7c0-57.8,46.9-104.7,104.7-104.7c57.8,0,104.7,46.9,104.7,104.7  c0,0,0,0,0,0C5158.9,3037.5,5112.1,3084.3,5054.3,3084.4z M5054.3,2882.4c-53.7,0-97.3,43.5-97.3,97.3s43.5,97.3,97.3,97.3  c53.7,0,97.3-43.5,97.3-97.3C5151.5,2926,5108,2882.5,5054.3,2882.4L5054.3,2882.4z"
   id="path71" />
<g
   id="g72"
   transform="matrix(1.4600717,0,0,1.4600717,-1766.3268,-851.68502)">
	<path
   class="st13"
   d="m 4039.6,2677.9 18.6,-25.1 -16.4,-23.1 h 7.6 l 8.7,12.4 c 1.8,2.6 3.1,4.5 3.8,5.9 1.2,-1.9 2.5,-3.7 3.8,-5.5 l 9.7,-12.8 h 6.9 l -16.9,22.7 18.3,25.5 h -7.9 l -12.1,-17.2 c -0.7,-1 -1.4,-2.1 -2.1,-3.2 -1.1,1.8 -1.8,3 -2.3,3.6 l -12.1,16.8 z"
   id="path72" />
</g>
<g
   id="g73"
   transform="matrix(1.5592465,0,0,1.5592465,-2409.6812,-1607.8895)">
	<path
   class="st13"
   d="m 4283.3,2923.3 v -20.4 l -18.6,-27.8 h 7.7 l 9.5,14.5 c 1.8,2.7 3.4,5.4 4.9,8.2 1.4,-2.5 3.2,-5.4 5.3,-8.5 l 9.3,-14.2 h 7.4 l -19.2,27.8 v 20.4 z"
   id="path73" />
</g>
<rect
   x="4099.5"
   y="2839.8"
   class="st12"
   width="7.7"
   height="291"
   id="rect73" />
<rect
   x="3814.4"
   y="2836.1"
   class="st12"
   width="288.9"
   height="7.7"
   id="rect74" />
<path
   class="st12"
   d="M4341.5,2843.8h-238.1c-2.1,0-3.8-1.7-3.8-3.8v-244.6c0-2.1,1.7-3.8,3.8-3.8c2.1,0,3.8,1.7,3.8,3.8v240.7  h234.3c2.1,0,3.8,1.7,3.8,3.8C4345.3,2842.1,4343.6,2843.8,4341.5,2843.8z"
   id="path74" />
<polygon
   class="st12"
   points="4065,2606.6 4103.4,2540.1 4141.7,2606.6 "
   id="polygon74"
   transform="rotate(180,4103.35,2848.6404)" />
<polygon
   class="st12"
   points="4330.2,2878.3 4396.7,2839.9 4330.2,2801.5 "
   id="polygon75" />
<path
   class="st12"
   d="m 3921.512,2905.553 c 8.1,69.7 35.8,102.9 171.4,102.9 h 0.8 v 7.7 h -0.8 c -66.2,0 -107.7,-7.6 -134.5,-24.6 -26.2,-16.6 -39.5,-42.1 -44.5,-85.1 z"
   id="path75" />
<polygon
   class="st12"
   points="4240.4,2775.9 4282.6,2840.1 4317.1,2771.5 "
   id="polygon76"
   transform="rotate(180,4098.856,2845.4265)" />
<path
   class="st14"
   d="M4283.1,2789.7"
   id="path76" />
<path
   class="st14"
   d="M4104.1,2678.5"
   id="path77" />
<g
   id="g78"
   transform="matrix(1.4651947,0,0,1.4651947,-2361.104,-862.72604)">
	<path
   class="st13"
   d="m 4253.3,2654.2 c 0,-16.6 5.2,-24.9 15.7,-24.9 10.5,0 15.7,8.3 15.7,24.9 0,16.6 -5.2,24.9 -15.7,24.9 -10.5,0 -15.7,-8.3 -15.7,-24.9 z m 6.1,-2.4 h 19.2 c -0.2,-6.9 -1.2,-11.5 -3,-14 -1.5,-2.3 -4,-3.7 -6.7,-3.7 -6.1,0.1 -9.3,5.9 -9.5,17.7 z m 19.3,4.8 h -19.2 c 0.2,11.8 3.5,17.7 9.6,17.7 6.1,0 9.3,-5.9 9.6,-17.7 z"
   id="path78" />
</g>
<g
   class="st3"
   id="g95">
	<rect
   x="5330.3"
   y="107"
   class="st15"
   width="1091.3"
   height="545.6"
   id="rect78" />
	<path
   class="st16"
   d="M6448.9,107H5303v545.6h1145.9V107z"
   id="path79" />
	<rect
   x="5303.1"
   y="107"
   class="st15"
   width="380.2"
   height="551.9"
   id="rect79" />
	<rect
   x="5688.8"
   y="107"
   class="st15"
   width="390.8"
   height="551.6"
   id="rect80" />
	<rect
   x="6085"
   y="107.2"
   class="st15"
   width="477.4"
   height="544.9"
   id="rect81" />
	<path
   class="st16"
   d="M6448.9,107H5303v545.6h1145.9V107z"
   id="path81" />
	<g
   class="st17"
   id="g82">
		<path
   class="st16"
   d="M6448.9,107H5303v545.6h1145.9V107z"
   id="path82" />
	</g>
	<line
   class="st18"
   x1="6082.2"
   y1="107"
   x2="6082.2"
   y2="655.4"
   id="line82" />
	<g
   class="st19"
   id="g83">
		<rect
   x="6077.4"
   y="107"
   width="9.5"
   height="548.4"
   id="rect82" />
	</g>
	<line
   class="st18"
   x1="6082.2"
   y1="107"
   x2="6082.2"
   y2="655.4"
   id="line83" />
	<g
   class="st19"
   id="g84">
		<rect
   x="6079.6"
   y="107"
   width="5.3"
   height="548.4"
   id="rect83" />
	</g>
	<line
   class="st18"
   x1="5686"
   y1="107"
   x2="5686"
   y2="655.5"
   id="line84" />
	<g
   class="st19"
   id="g85">
		<rect
   x="5681.3"
   y="107"
   width="9.5"
   height="548.5"
   id="rect84" />
	</g>
	<line
   class="st18"
   x1="5686"
   y1="107"
   x2="5686"
   y2="655.5"
   id="line85" />
	<g
   class="st19"
   id="g86">
		<rect
   x="5683.4"
   y="107"
   width="5.3"
   height="548.5"
   id="rect85" />
	</g>
	<rect
   x="1783.6"
   y="107"
   class="st15"
   width="1091.3"
   height="545.6"
   id="rect86" />
	<path
   class="st16"
   d="M1756.3,107h1145.9v545.7H1756.3V107z"
   id="path86" />
	<rect
   x="2522.1"
   y="107"
   class="st15"
   width="380.2"
   height="551.9"
   id="rect87" />
	<rect
   x="2125.8"
   y="107"
   class="st15"
   width="390.8"
   height="551.6"
   id="rect88" />
	<rect
   x="1643"
   y="113.9"
   class="st15"
   width="477.4"
   height="538.9"
   id="rect89" />
	<g
   class="st17"
   id="g89">
		<path
   class="st16"
   d="M1756.3,107h1145.9v545.7H1756.3V107z"
   id="path89" />
	</g>
	<g
   class="st20"
   id="g90">
		<path
   class="st16"
   d="M1756.3,107h1145.9v545.7H1756.3V107z"
   id="path90" />
	</g>
	<line
   class="st18"
   x1="2123.1"
   y1="107"
   x2="2123.1"
   y2="655.4"
   id="line90" />
	<g
   class="st19"
   id="g91">
		<rect
   x="2118.3"
   y="107"
   width="9.5"
   height="548.4"
   id="rect90" />
	</g>
	<line
   class="st18"
   x1="2123.1"
   y1="107"
   x2="2123.1"
   y2="655.4"
   id="line91" />
	<g
   class="st19"
   id="g92">
		<rect
   x="2120.4"
   y="107"
   width="5.3"
   height="548.4"
   id="rect91" />
	</g>
	<line
   class="st18"
   x1="2519.4"
   y1="107"
   x2="2519.4"
   y2="655.5"
   id="line92" />
	<g
   class="st19"
   id="g93">
		<rect
   x="2514.6"
   y="107"
   width="9.5"
   height="548.5"
   id="rect92" />
	</g>
	<line
   class="st18"
   x1="2519.4"
   y1="107"
   x2="2519.4"
   y2="655.5"
   id="line93" />
	<g
   class="st19"
   id="g94">
		<rect
   x="2516.7"
   y="107"
   width="5.3"
   height="548.5"
   id="rect93" />
	</g>
	<rect
   x="2875.8"
   y="107"
   class="st15"
   width="2454.5"
   height="1227.4"
   id="rect94" />
</g>
<path
   class="st13"
   d="M513.1,3549.4l52.9-137.8h19.6l56.4,137.8h-20.8l-16.1-41.7h-57.6l-15.1,41.7H513.1z M552.9,3492.8h46.7  l-14.4-38.2c-4.4-11.6-7.6-21.1-9.8-28.6c-1.8,9-4.3,17.8-7.4,26.3L552.9,3492.8z"
   id="path95" />
<path
   class="st13"
   d="M649.8,3481.4c0-16.3,1.7-29.4,5-39.3c3.3-9.9,8.3-17.6,14.9-23c6.6-5.4,14.9-8.1,25-8.1  c6.8-0.1,13.4,1.4,19.4,4.5c5.6,3,10.4,7.5,13.8,12.9c3.9,6.3,6.8,13.2,8.5,20.5c2.1,8,3.1,18.9,3.1,32.6c0,16.2-1.7,29.2-5,39.1  c-3.3,9.9-8.3,17.6-14.9,23c-6.6,5.4-15,8.1-25,8.1c-13.3,0-23.7-4.8-31.3-14.3C654.3,3526,649.8,3507.3,649.8,3481.4z   M667.2,3481.4c0,22.6,2.6,37.7,7.9,45.2c5.3,7.5,11.8,11.2,19.6,11.2c7.8,0,14.3-3.8,19.6-11.3c5.3-7.5,7.9-22.6,7.9-45.1  c0-22.7-2.6-37.7-7.9-45.2c-5.3-7.5-11.9-11.2-19.8-11.2c-7.8,0-14,3.3-18.6,9.9C670.1,3443.3,667.2,3458.8,667.2,3481.4z"
   id="path96" />
<path
   class="st13"
   d="M7878.9,1796l52.9-137.8h19.6l56.4,137.8h-20.8l-16.1-41.7h-57.6l-15.1,41.7H7878.9z M7918.7,1739.4h46.7  l-14.4-38.2c-4.4-11.6-7.6-21.1-9.8-28.6c-1.8,8.9-4.3,17.7-7.4,26.3L7918.7,1739.4z"
   id="path97" />
<path
   class="st13"
   d="M8104.5,1779.7v16.3h-91.1c-0.1-4,0.5-8,1.9-11.8c2.6-6.7,6.4-12.9,11.1-18.3c5.1-6,12.5-13,22.1-20.9  c15-12.3,25.1-22,30.4-29.2c5.3-7.2,7.9-14,7.9-20.3c0.1-6.4-2.5-12.6-7.2-17c-4.8-4.6-11-6.9-18.7-6.9c-8.2,0-14.7,2.4-19.6,7.3  c-4.9,4.9-7.4,11.7-7.4,20.3l-17.4-1.8c1.2-13,5.7-22.9,13.5-29.6c7.8-6.8,18.2-10.2,31.3-10.2c13.2,0,23.7,3.7,31.4,11  c7.6,7,11.8,16.9,11.5,27.3c0,5.6-1.2,11.1-3.4,16.3c-2.3,5.3-6,10.9-11.2,16.8c-5.2,5.9-13.9,14-26.1,24.3  c-10.2,8.5-16.7,14.3-19.5,17.3c-2.7,2.8-5.1,5.9-7.1,9.2L8104.5,1779.7z"
   id="path98" />
<path
   class="st13"
   d="M7505.5,5040l52.9-137.8h19.6l56.4,137.8h-20.8l-16.1-41.7H7540l-15.1,41.7H7505.5z M7545.3,4983.4h46.7  l-14.4-38.2c-4.4-11.6-7.6-21.1-9.8-28.6c-1.8,9-4.3,17.7-7.4,26.3L7545.3,4983.4z"
   id="path99" />
<path
   class="st13"
   d="M7705.9,5040H7689v-107.8c-4.9,4.5-10.3,8.4-16,11.7c-5.7,3.4-11.6,6.3-17.8,8.7v-16.4  c9-4.2,17.4-9.6,24.8-16.2c7.1-6.3,12.1-12.5,15-18.4h10.9V5040z"
   id="path100" />
<path
   class="st13"
   d="M3245.3,5435.5l52.9-137.8h19.6l56.4,137.8h-20.8l-16.1-41.7h-57.6l-15.1,41.7H3245.3z M3285.1,5378.9h46.7  l-14.4-38.2c-4.4-11.6-7.6-21.1-9.8-28.6c-1.8,9-4.3,17.8-7.4,26.3L3285.1,5378.9z"
   id="path101" />
<path
   class="st13"
   d="M3382,5399.2l16.9-2.3c1.9,9.6,5.2,16.5,9.9,20.7c4.7,4.2,10.8,6.5,17.1,6.3c7.6,0.2,14.9-2.8,20.2-8.3  c5.4-5.4,8.4-12.8,8.2-20.5c0-7.8-2.5-14.2-7.6-19.2c-5.1-5.1-11.5-7.6-19.4-7.6c-4,0.1-8.1,0.8-11.9,1.9l1.9-14.8  c0.9,0.1,1.8,0.2,2.7,0.2c6.9,0.1,13.7-1.9,19.5-5.6c5.8-3.8,8.7-9.5,8.7-17.4c0.2-5.8-2.1-11.4-6.3-15.4c-4.2-4.1-9.6-6.1-16.3-6.1  c-6.1-0.2-12,2.1-16.4,6.2c-4.4,4.1-7.2,10.3-8.5,18.6l-16.9-3c2.1-11.3,6.8-20.1,14.1-26.4c7.3-6.2,16.4-9.4,27.3-9.4  c7.2-0.1,14.3,1.6,20.8,4.8c6,2.9,11,7.5,14.5,13.2c3.3,5.3,5,11.5,5,17.8c0,5.8-1.6,11.4-4.8,16.3c-3.2,4.9-7.9,8.8-14.2,11.7  c8.1,1.9,14.5,5.8,19,11.7c4.5,5.9,6.8,13.3,6.7,22.2c0.2,11.6-4.6,22.7-13.2,30.6c-8.8,8.3-19.9,12.5-33.3,12.5  c-12.1,0-22.1-3.6-30.1-10.8C3387.7,5419.9,3383.2,5410.6,3382,5399.2z"
   id="path102" />
<path
   class="st13"
   d="M7455.5,3549.6l52.9-137.8h19.6l56.4,137.8h-20.8l-16.1-41.7H7490l-15.1,41.7H7455.5z M7495.3,3493h46.7  l-14.4-38.1c-4.4-11.6-7.6-21.1-9.8-28.6c-1.8,8.9-4.3,17.7-7.4,26.3L7495.3,3493z"
   id="path103" />
<path
   class="st13"
   d="M7592.1,3481.7c0-16.3,1.7-29.4,5-39.3c3.3-9.9,8.3-17.6,14.9-23c6.6-5.4,14.9-8.1,25-8.1  c6.8-0.1,13.4,1.4,19.4,4.5c5.6,3,10.4,7.5,13.8,12.9c3.9,6.3,6.8,13.2,8.6,20.5c2.1,8.1,3.1,18.9,3.1,32.6c0,16.2-1.7,29.2-5,39.1  c-3.3,9.9-8.3,17.6-14.9,23c-6.6,5.4-14.9,8.1-25,8.1c-13.3,0-23.7-4.8-31.3-14.3C7596.7,3526.2,7592.1,3507.5,7592.1,3481.7z   M7609.5,3481.7c0,22.6,2.6,37.7,7.9,45.2c5.3,7.5,11.8,11.2,19.6,11.2c7.8,0,14.3-3.8,19.6-11.3c5.3-7.5,7.9-22.6,7.9-45.1  c0-22.7-2.6-37.8-7.9-45.2c-5.3-7.5-11.9-11.2-19.8-11.1c-7.8,0-14,3.3-18.6,9.9C7612.4,3443.6,7609.5,3459,7609.5,3481.7  L7609.5,3481.7z"
   id="path104" />
<path
   class="st13"
   d="M7702.9,3430.1v-19.6h18.1v15.5c0,8.4-1,14.4-2.9,18.1c-2.8,5.1-7.2,9.2-12.6,11.5l-4.1-6.7  c3.2-1.2,5.9-3.5,7.6-6.5c1.7-3,2.6-7.1,2.8-12.3L7702.9,3430.1z"
   id="path105" />
<path
   class="st13"
   d="M513.2,5040.3l52.9-137.8h19.6l56.4,137.8h-20.8l-16.1-41.7h-57.6l-15.1,41.7H513.2z M553,4983.7h46.7  l-14.4-38.1c-4.4-11.6-7.6-21.1-9.8-28.6c-1.8,9-4.3,17.7-7.4,26.3L553,4983.7z"
   id="path106" />
<path
   class="st13"
   d="M713.6,5040.3h-16.9v-107.8c-4.9,4.5-10.3,8.4-16,11.7c-5.7,3.4-11.6,6.4-17.8,8.7v-16.4  c9-4.2,17.4-9.6,24.8-16.2c7.1-6.3,12.1-12.5,15-18.4h10.9V5040.3z"
   id="path107" />
<path
   class="st13"
   d="M760.6,4920.7v-19.6h18.1v15.5c0,8.4-1,14.4-2.9,18.1c-2.8,5.1-7.2,9.2-12.6,11.5l-4.1-6.7  c3.2-1.2,5.9-3.5,7.6-6.5c1.7-3,2.6-7.1,2.8-12.3H760.6z"
   id="path108" />
<path
   class="st13"
   d="M4777.3,5435.5l52.9-137.8h19.6l56.4,137.8h-20.8l-16.1-41.7h-57.6l-15.1,41.7H4777.3z M4817.1,5378.9h46.7  l-14.4-38.2c-4.4-11.6-7.6-21.1-9.8-28.6c-1.8,9-4.3,17.7-7.4,26.3L4817.1,5378.9z"
   id="path109" />
<path
   class="st13"
   d="M4914.1,5399.2l16.9-2.3c1.9,9.6,5.2,16.5,9.9,20.7c4.7,4.2,10.8,6.5,17.1,6.3c7.6,0.2,14.9-2.8,20.2-8.3  c5.4-5.4,8.4-12.8,8.2-20.5c0-7.8-2.5-14.2-7.6-19.2c-5.1-5.1-11.5-7.6-19.4-7.6c-4,0.1-8.1,0.8-11.9,1.9l1.9-14.8  c0.9,0.1,1.8,0.2,2.7,0.2c6.9,0.1,13.7-1.9,19.5-5.6c5.8-3.8,8.7-9.5,8.7-17.4c0.2-5.8-2.1-11.4-6.3-15.4c-4.2-4.1-9.6-6.1-16.3-6.1  c-6.1-0.2-12,2.1-16.4,6.2c-4.4,4.1-7.2,10.3-8.5,18.6l-16.9-3c2.1-11.3,6.8-20.1,14.1-26.4s16.4-9.4,27.3-9.4  c7.2-0.1,14.3,1.6,20.8,4.8c6,2.9,11,7.5,14.5,13.2c3.3,5.3,5,11.5,5,17.8c0,5.8-1.6,11.4-4.8,16.3c-3.2,4.9-7.9,8.8-14.2,11.7  c8.1,1.9,14.5,5.8,19,11.7c4.5,5.9,6.8,13.3,6.7,22.2c0.2,11.6-4.6,22.7-13.2,30.6c-8.8,8.3-19.9,12.5-33.3,12.5  c-12.1,0-22.1-3.6-30.1-10.8S4915.2,5410.6,4914.1,5399.2z"
   id="path110" />
<path
   class="st13"
   d="M5024.7,5316v-19.6h18.1v15.5c0,8.4-1,14.4-2.9,18.1c-2.8,5.1-7.2,9.2-12.6,11.5l-4.1-6.7  c3.2-1.2,5.9-3.5,7.6-6.5c1.7-3,2.6-7.1,2.8-12.3H5024.7z"
   id="path111" />
<path
   class="st13"
   d="M895.3,832.7l52.9-137.8h19.6l56.4,137.8h-20.8L987.4,791h-57.6l-15.1,41.7H895.3z M935,776.1h46.7l-14.4-38.2  c-4.4-11.6-7.6-21.1-9.8-28.6c-1.8,8.9-4.3,17.7-7.4,26.3L935,776.1z"
   id="path112" />
<path
   class="st13"
   d="M1086.2,832.7v-33h-59.8v-15.5l62.9-89.3h13.8v89.3h18.6v15.5h-18.6v33H1086.2z M1086.2,784.2v-62.1  l-43.1,62.1L1086.2,784.2z"
   id="path113" />
<path
   class="st13"
   d="M1142.6,713.1v-19.6h18.1V709c0,8.4-1,14.5-2.9,18.1c-2.8,5.1-7.2,9.2-12.6,11.5l-4.1-6.7  c3.2-1.2,5.9-3.5,7.6-6.5c1.7-3,2.6-7.1,2.8-12.3L1142.6,713.1z"
   id="path114" />
<path
   class="st13"
   d="M7042.7,793.2l52.9-137.8h19.6l56.4,137.8h-20.8l-16.1-41.7h-57.6l-15.1,41.7H7042.7z M7082.4,736.7h46.7  l-14.4-38.2c-4.4-11.6-7.6-21.1-9.8-28.6c-1.8,8.9-4.3,17.7-7.4,26.3L7082.4,736.7z"
   id="path115" />
<path
   class="st13"
   d="M7233.6,793.2v-33h-59.8v-15.5l62.9-89.3h13.8v89.3h18.6v15.5h-18.6v33H7233.6z M7233.6,744.7v-62.1  l-43.1,62.1L7233.6,744.7z"
   id="path116" />
<path
   class="st13"
   d="M101.4,1796l52.9-137.8h19.6l56.4,137.8h-20.8l-16.1-41.7h-57.6l-15.1,41.7H101.4z M141.1,1739.4h46.7  l-14.4-38.2c-4.4-11.6-7.6-21.1-9.8-28.6c-1.8,8.9-4.3,17.7-7.4,26.3L141.1,1739.4z"
   id="path117" />
<path
   class="st13"
   d="M326.9,1779.7v16.3h-91.1c-0.1-4,0.5-8,1.9-11.8c2.6-6.7,6.4-12.9,11.1-18.3c5.1-6,12.5-13,22.1-20.9  c15-12.3,25.1-22,30.4-29.2c5.3-7.2,7.9-14,7.9-20.3c0.1-6.4-2.5-12.6-7.2-17c-4.8-4.6-11-6.9-18.7-6.9c-8.1,0-14.7,2.4-19.6,7.3  c-4.9,4.9-7.4,11.7-7.4,20.3l-17.4-1.8c1.2-13,5.7-22.9,13.5-29.6c7.8-6.8,18.2-10.2,31.3-10.2c13.2,0,23.7,3.7,31.4,11  c7.6,7,11.8,16.9,11.5,27.3c0,5.6-1.2,11.1-3.4,16.3c-2.3,5.3-6,10.9-11.2,16.8c-5.2,5.9-13.9,14-26.1,24.3  c-10.2,8.5-16.7,14.3-19.5,17.3c-2.7,2.8-5.1,5.9-7.1,9.2L326.9,1779.7z"
   id="path118" />
<path
   class="st13"
   d="M348.7,1676.4v-19.6h18.1v15.5c0,8.4-1,14.5-2.9,18.1c-2.8,5.1-7.2,9.2-12.6,11.5l-4.1-6.7  c3.2-1.2,5.9-3.5,7.6-6.5c1.7-3,2.6-7.1,2.8-12.3H348.7z"
   id="path119" />
<path
   class="st13"
   d="M6884.9,2634.1l17.2-1.5c0.8,6.9,2.7,12.5,5.7,17c3,4.4,7.6,8,13.9,10.7c6.7,2.8,13.9,4.2,21.2,4.1  c6.3,0.1,12.5-1,18.4-3.1c5.3-2.1,9.3-4.9,11.9-8.5c2.5-3.4,3.9-7.5,3.9-11.8c0.1-4.1-1.2-8.1-3.8-11.3c-2.5-3.2-6.6-5.9-12.4-8.1  c-3.7-1.4-11.9-3.7-24.5-6.7c-12.7-3-21.5-5.9-26.6-8.6c-6.6-3.4-11.5-7.7-14.7-12.8c-3.2-5.1-4.9-11.1-4.8-17.1  c0-6.9,2.1-13.7,5.9-19.5c3.9-6,9.7-10.6,17.3-13.8c8-3.2,16.6-4.8,25.3-4.7c10.2,0,19.2,1.6,27,4.9c7.3,2.9,13.6,8,18,14.5  c4.2,6.5,6.5,14,6.7,21.7l-17.5,1.3c-0.9-8.7-4.1-15.3-9.5-19.7c-5.4-4.5-13.4-6.7-24-6.7c-11,0-19.1,2-24.1,6.1  c-5,4-7.6,8.9-7.6,14.6c-0.1,4.7,1.8,9.1,5.4,12.2c3.5,3.2,12.7,6.5,27.5,9.8c14.8,3.3,25,6.3,30.5,8.8c8,3.7,13.9,8.4,17.8,14.1  c3.9,5.8,5.9,12.6,5.8,19.6c0,7.4-2.2,14.6-6.3,20.7c-4.2,6.5-10.2,11.5-18.1,15.1c-8.4,3.7-17.4,5.5-26.5,5.4  c-12.5,0-22.9-1.8-31.3-5.4c-8.1-3.4-15-9.1-19.8-16.4C6887.7,2651.5,6885.1,2642.9,6884.9,2634.1z"
   id="path120" />
<path
   class="st13"
   d="M7012.7,2610.4c0-16.3,1.7-29.4,5-39.3c3.3-9.9,8.3-17.6,14.9-23c6.6-5.4,14.9-8.1,25-8.1  c6.8-0.1,13.4,1.4,19.4,4.5c5.6,3,10.4,7.5,13.8,12.9c3.9,6.3,6.8,13.2,8.5,20.5c2.1,8,3.1,18.9,3.1,32.6c0,16.2-1.7,29.2-5,39.1  c-3.3,9.9-8.3,17.6-14.9,23c-6.6,5.4-14.9,8.1-25,8.1c-13.3,0-23.7-4.8-31.3-14.3C7017.2,2654.9,7012.7,2636.3,7012.7,2610.4z   M7030,2610.4c0,22.6,2.6,37.7,7.9,45.2c5.3,7.5,11.8,11.2,19.6,11.2c7.8,0,14.3-3.8,19.6-11.3c5.3-7.5,7.9-22.6,7.9-45.1  c0-22.7-2.6-37.7-7.9-45.2c-5.3-7.5-11.9-11.2-19.8-11.2c-7.8,0-14,3.3-18.6,9.9C7032.9,2572.3,7030,2587.8,7030,2610.4z"
   id="path121" />
<path
   class="st13"
   d="M6884.8,4215.2l17.2-1.5c0.8,6.9,2.7,12.5,5.7,17c3,4.4,7.6,8,13.9,10.7c6.7,2.8,13.9,4.2,21.2,4.1  c6.3,0.1,12.5-0.9,18.4-3.1c5.3-2.1,9.3-4.9,11.9-8.5c2.5-3.4,3.9-7.5,3.9-11.8c0.1-4.1-1.2-8.1-3.8-11.3c-2.5-3.2-6.6-5.9-12.4-8.1  c-3.7-1.4-11.9-3.7-24.5-6.7c-12.6-3-21.5-5.9-26.6-8.6c-6.6-3.4-11.5-7.7-14.7-12.8c-3.2-5.1-4.9-11.1-4.8-17.1  c0-6.9,2.1-13.7,5.9-19.5c3.9-6,9.7-10.6,17.3-13.8c8-3.2,16.6-4.8,25.3-4.7c10.2,0,19.2,1.6,27,4.9c7.3,2.9,13.6,8,18,14.5  c4.2,6.5,6.5,14,6.7,21.7l-17.5,1.3c-0.9-8.7-4.1-15.3-9.5-19.7c-5.4-4.5-13.4-6.7-24-6.7c-11,0-19.1,2-24.1,6.1  c-5,4-7.6,8.9-7.6,14.6c-0.1,4.7,1.8,9.1,5.4,12.2c3.5,3.2,12.7,6.5,27.5,9.8c14.8,3.3,25,6.3,30.5,8.8c8,3.7,13.9,8.4,17.8,14.1  c3.9,5.8,5.9,12.6,5.8,19.6c0,7.4-2.2,14.6-6.3,20.7c-4.2,6.5-10.2,11.5-18.1,15.1c-8.4,3.7-17.4,5.5-26.6,5.4  c-12.5,0-22.9-1.8-31.3-5.4c-8.1-3.4-15-9.1-19.8-16.4C6887.6,4232.6,6884.9,4224,6884.8,4215.2z"
   id="path122" />
<path
   class="st13"
   d="M7076.2,4259.5h-16.9v-107.8c-4.9,4.5-10.3,8.4-16,11.7c-5.7,3.4-11.6,6.3-17.8,8.7v-16.4  c9-4.2,17.4-9.6,24.8-16.2c7.1-6.3,12.1-12.5,15-18.4h10.9V4259.5z"
   id="path123" />
<path
   class="st13"
   d="M6013.9,5216l17.2-1.5c0.8,6.9,2.7,12.5,5.7,17c3,4.4,7.6,8,13.9,10.7c6.7,2.8,13.9,4.2,21.2,4.1  c6.3,0.1,12.5-0.9,18.4-3.1c5.3-2.1,9.3-4.9,11.9-8.5c2.5-3.4,3.9-7.5,3.9-11.8c0.1-4.1-1.2-8.1-3.8-11.3c-2.5-3.2-6.6-5.9-12.4-8.1  c-3.7-1.4-11.9-3.7-24.5-6.7c-12.6-3-21.5-5.9-26.6-8.6c-6.6-3.4-11.5-7.7-14.7-12.8c-3.2-5.1-4.9-11.1-4.8-17.1  c0-6.9,2.1-13.7,5.9-19.5c3.9-6,9.7-10.6,17.3-13.8c8-3.2,16.6-4.8,25.3-4.7c10.2,0,19.2,1.6,27,4.9c7.3,2.9,13.6,8,18,14.5  c4.2,6.5,6.5,14,6.7,21.7l-17.5,1.3c-0.9-8.7-4.1-15.3-9.5-19.7c-5.4-4.5-13.4-6.7-24-6.7c-11,0-19.1,2-24.1,6.1  c-5,4-7.6,8.9-7.6,14.6c-0.1,4.7,1.8,9.1,5.4,12.2c3.5,3.2,12.7,6.5,27.5,9.8c14.8,3.3,25,6.3,30.5,8.8c8,3.7,13.9,8.4,17.8,14.1  c3.9,5.8,5.9,12.6,5.8,19.6c0,7.4-2.2,14.6-6.3,20.7c-4.2,6.5-10.2,11.5-18.1,15.1c-8.4,3.7-17.4,5.5-26.6,5.4  c-12.5,0-22.9-1.8-31.3-5.4c-8.1-3.4-15-9.1-19.8-16.4C6016.7,5233.4,6014,5224.8,6013.9,5216z"
   id="path124" />
<path
   class="st13"
   d="M6230.5,5244v16.3h-91.1c-0.1-4,0.5-8,2-11.8c2.6-6.7,6.4-12.9,11.1-18.3c5.1-6,12.5-13,22.1-20.9  c15-12.3,25.1-22,30.4-29.2c5.3-7.2,7.9-14,7.9-20.3c0.1-6.4-2.5-12.6-7.2-17c-4.8-4.6-11-6.9-18.7-6.9c-8.1,0-14.7,2.4-19.5,7.3  s-7.4,11.7-7.4,20.3l-17.4-1.8c1.2-13,5.7-22.9,13.5-29.6s18.2-10.2,31.3-10.2c13.2,0,23.7,3.7,31.4,11c7.6,7,11.8,16.9,11.5,27.3  c0,5.6-1.2,11.1-3.4,16.3c-2.3,5.3-6,10.9-11.2,16.8s-13.9,14-26.1,24.3c-10.2,8.5-16.7,14.3-19.6,17.3c-2.7,2.8-5.1,5.9-7.1,9.2  L6230.5,5244z"
   id="path125" />
<path
   class="st13"
   d="M5063.1,2778.4l17.2-1.5c0.8,6.9,2.7,12.5,5.7,17c3,4.4,7.6,8,13.9,10.7c6.7,2.8,13.9,4.2,21.2,4.1  c6.3,0.1,12.5-0.9,18.4-3.1c5.3-2.1,9.3-4.9,11.9-8.5c2.5-3.4,3.9-7.5,3.9-11.8c0.1-4.1-1.2-8.1-3.8-11.3c-2.5-3.2-6.6-5.9-12.4-8.1  c-3.7-1.4-11.9-3.7-24.5-6.7c-12.7-3-21.5-5.9-26.6-8.6c-6.6-3.4-11.5-7.7-14.7-12.8c-3.2-5.1-4.9-11.1-4.8-17.1  c0-6.9,2.1-13.7,5.9-19.5c3.9-6,9.7-10.6,17.3-13.8c8-3.2,16.6-4.8,25.3-4.7c10.2,0,19.2,1.6,27,4.9c7.3,2.9,13.6,8,18,14.5  c4.2,6.5,6.5,14,6.7,21.7l-17.5,1.3c-0.9-8.7-4.1-15.3-9.5-19.7c-5.4-4.5-13.4-6.7-24-6.7c-11,0-19.1,2-24.1,6.1s-7.6,8.9-7.6,14.6  c-0.1,4.7,1.8,9.1,5.4,12.2c3.5,3.2,12.7,6.5,27.5,9.8c14.8,3.3,25,6.3,30.5,8.8c8,3.7,13.9,8.4,17.8,14.1  c3.9,5.8,5.9,12.6,5.8,19.6c0,7.4-2.2,14.6-6.3,20.7c-4.2,6.5-10.2,11.5-18.1,15.1c-8.4,3.7-17.4,5.5-26.6,5.4  c-12.5,0-22.9-1.8-31.3-5.4c-8.1-3.4-15-9.1-19.8-16.4C5065.9,2795.9,5063.2,2787.3,5063.1,2778.4z"
   id="path126" />
<path
   class="st13"
   d="M5190.9,2786.3l16.9-2.3c1.9,9.6,5.2,16.5,9.9,20.7c4.7,4.2,10.8,6.5,17.1,6.3c7.6,0.2,14.9-2.8,20.2-8.3  c5.4-5.4,8.4-12.8,8.2-20.5c0-7.8-2.5-14.2-7.6-19.2c-5.1-5.1-11.5-7.6-19.4-7.6c-4,0.1-8.1,0.8-11.9,1.9l1.9-14.8  c0.9,0.1,1.8,0.2,2.7,0.2c6.9,0.1,13.7-1.9,19.5-5.6c5.8-3.8,8.7-9.5,8.7-17.4c0.2-5.8-2.1-11.4-6.3-15.4c-4.2-4.1-9.6-6.1-16.3-6.1  c-6.6,0-12.1,2.1-16.5,6.2c-4.4,4.1-7.2,10.3-8.5,18.6l-16.9-3c2.1-11.3,6.8-20.1,14.1-26.4c7.3-6.2,16.4-9.4,27.3-9.4  c7.2-0.1,14.3,1.6,20.8,4.8c6,2.9,11,7.5,14.5,13.2c3.3,5.3,5,11.5,5,17.8c0,5.8-1.6,11.4-4.8,16.3c-3.2,4.9-7.9,8.8-14.2,11.7  c8.2,1.9,14.5,5.8,19,11.7c4.5,5.9,6.7,13.3,6.7,22.2c0.2,11.6-4.6,22.7-13.2,30.6c-8.8,8.3-19.9,12.5-33.3,12.5  c-12.1,0-22.1-3.6-30.1-10.8C5196.5,2807.1,5192,2797.8,5190.9,2786.3z"
   id="path127" />
<path
   class="st13"
   d="M2884.4,2753.4l17.2-1.5c0.8,6.9,2.7,12.5,5.7,17c3,4.4,7.6,8,13.9,10.7c6.7,2.8,13.9,4.2,21.2,4.1  c6.3,0.1,12.5-0.9,18.4-3.1c5.3-2.1,9.3-4.9,11.9-8.5c2.5-3.4,3.9-7.5,3.9-11.8c0.1-4.1-1.2-8.1-3.8-11.3c-2.5-3.2-6.6-5.9-12.4-8.1  c-3.7-1.4-11.9-3.7-24.5-6.7c-12.6-3-21.5-5.9-26.6-8.6c-6.6-3.4-11.5-7.7-14.7-12.8c-3.2-5.1-4.9-11.1-4.8-17.1  c0-6.9,2.1-13.7,5.9-19.5c3.9-6,9.7-10.6,17.3-13.8c8-3.2,16.6-4.8,25.3-4.7c10.2,0,19.2,1.6,27,4.9c7.3,2.9,13.6,8,18,14.5  c4.2,6.5,6.5,14,6.7,21.7l-17.5,1.3c-0.9-8.7-4.1-15.3-9.5-19.7c-5.4-4.5-13.4-6.7-24.1-6.7c-11,0-19,2-24.1,6.1  c-5,4-7.5,8.9-7.6,14.6c-0.1,4.7,1.8,9.1,5.4,12.2c3.5,3.2,12.7,6.5,27.5,9.8c14.8,3.3,25,6.3,30.5,8.8c8,3.7,13.9,8.4,17.8,14.1  c3.9,5.8,5.9,12.6,5.7,19.6c0,7.4-2.2,14.6-6.3,20.7c-4.2,6.5-10.2,11.5-18.1,15.1c-8.4,3.7-17.4,5.5-26.6,5.4  c-12.5,0-22.9-1.8-31.3-5.4c-8.1-3.4-15-9.1-19.8-16.4C2887.1,2770.8,2884.5,2762.2,2884.4,2753.4z"
   id="path128" />
<path
   class="st13"
   d="M3012.2,2761.3l16.9-2.3c1.9,9.6,5.2,16.5,9.9,20.7c4.7,4.2,10.8,6.5,17.1,6.3c7.6,0.2,14.9-2.8,20.2-8.3  c5.4-5.4,8.4-12.8,8.2-20.5c0-7.8-2.5-14.2-7.6-19.2s-11.5-7.6-19.4-7.6c-4,0.1-8.1,0.8-11.9,1.9l1.9-14.8c0.9,0.1,1.8,0.2,2.7,0.2  c6.9,0.1,13.7-1.9,19.4-5.6c5.8-3.8,8.7-9.5,8.7-17.4c0.2-5.8-2.1-11.4-6.3-15.4c-4.2-4.1-9.6-6.1-16.3-6.1  c-6.6,0-12.1,2.1-16.5,6.2c-4.4,4.1-7.2,10.3-8.5,18.6l-16.9-3c2.1-11.3,6.8-20.1,14.1-26.4c7.3-6.2,16.4-9.4,27.3-9.4  c7.2-0.1,14.3,1.6,20.8,4.8c6,2.9,11,7.5,14.5,13.2c3.3,5.3,5,11.5,5,17.8c0,5.8-1.6,11.4-4.8,16.3c-3.2,4.9-7.9,8.8-14.2,11.7  c8.1,1.9,14.5,5.8,19,11.7c4.5,5.9,6.8,13.3,6.7,22.2c0.2,11.6-4.6,22.7-13.2,30.6c-8.8,8.3-19.9,12.5-33.3,12.5  c-12.1,0-22.1-3.6-30.1-10.8C3017.8,2782.1,3013.3,2772.8,3012.2,2761.3z"
   id="path129" />
<path
   class="st13"
   d="M3122.8,2678.1v-19.6h18.1v15.5c0,8.4-1,14.4-2.9,18.1c-2.8,5.1-7.2,9.2-12.6,11.5l-4.1-6.7  c3.2-1.2,5.9-3.5,7.6-6.5c1.7-3,2.6-7.1,2.8-12.3L3122.8,2678.1z"
   id="path130" />
<path
   class="st13"
   d="M5781,1053l17.2-1.5c0.8,6.9,2.7,12.5,5.7,17c3,4.4,7.6,8,13.9,10.7c6.7,2.8,13.9,4.2,21.2,4.1  c6.3,0.1,12.5-0.9,18.4-3.1c5.3-2.1,9.3-4.9,11.9-8.5c2.5-3.4,3.9-7.5,3.9-11.8c0.1-4.1-1.2-8.1-3.8-11.3c-2.5-3.2-6.6-5.9-12.4-8.1  c-3.7-1.4-11.9-3.7-24.5-6.7c-12.6-3-21.5-5.9-26.6-8.6c-6.6-3.4-11.5-7.7-14.7-12.8c-3.2-5.1-4.9-11.1-4.8-17.1  c0-6.9,2.1-13.7,5.9-19.5c3.9-6,9.7-10.6,17.3-13.8c8-3.2,16.6-4.8,25.3-4.7c10.2,0,19.2,1.6,27,4.9c7.3,2.9,13.6,8,18,14.5  c4.2,6.5,6.5,14,6.7,21.7l-17.5,1.3c-0.9-8.7-4.1-15.3-9.5-19.7c-5.4-4.5-13.4-6.7-24-6.7c-11,0-19.1,2-24.1,6.1s-7.6,8.9-7.6,14.6  c-0.1,4.7,1.8,9.1,5.4,12.2c3.5,3.2,12.7,6.5,27.5,9.8c14.8,3.3,25,6.3,30.5,8.8c8,3.7,13.9,8.4,17.8,14.1  c3.9,5.8,5.9,12.6,5.8,19.6c0,7.4-2.2,14.6-6.3,20.7c-4.2,6.5-10.2,11.5-18.1,15.1c-8.4,3.7-17.4,5.5-26.6,5.4  c-12.5,0-22.9-1.8-31.3-5.4c-8.1-3.4-15-9.1-19.8-16.4C5783.8,1070.4,5781.1,1061.8,5781,1053z"
   id="path131" />
<path
   class="st13"
   d="M5962.9,1097.2v-33h-59.8v-15.5l62.9-89.3h13.8v89.3h18.6v15.5h-18.6v33H5962.9z M5962.9,1048.7v-62.1  l-43.1,62.1H5962.9z"
   id="path132" />
<path
   class="st13"
   d="M2194.4,1023.1l17.2-1.5c0.8,6.9,2.7,12.5,5.7,17c3,4.4,7.6,8,13.9,10.7c6.7,2.8,13.9,4.2,21.2,4.1  c6.3,0.1,12.5-0.9,18.4-3.1c5.3-2.1,9.3-4.9,11.9-8.5c2.5-3.4,3.9-7.5,3.9-11.8c0.1-4.1-1.2-8.1-3.8-11.3c-2.5-3.2-6.6-5.9-12.4-8.1  c-3.7-1.4-11.9-3.7-24.5-6.7c-12.6-3-21.5-5.9-26.6-8.6c-6.6-3.4-11.5-7.7-14.7-12.8c-3.2-5.1-4.9-11.1-4.8-17.1  c0-6.9,2.1-13.7,5.9-19.5c3.9-6,9.7-10.6,17.3-13.8c8-3.2,16.6-4.8,25.3-4.7c10.2,0,19.2,1.6,27,4.9c7.3,2.9,13.6,8,18,14.5  c4.2,6.5,6.5,14,6.7,21.7l-17.5,1.3c-0.9-8.7-4.1-15.3-9.5-19.7c-5.4-4.5-13.4-6.7-24.1-6.7c-11,0-19,2-24.1,6.1  c-5,4-7.5,8.9-7.6,14.6c-0.1,4.7,1.8,9.1,5.4,12.2c3.5,3.2,12.7,6.5,27.5,9.8c14.8,3.3,25,6.3,30.5,8.8c8,3.7,13.9,8.4,17.8,14.1  c3.9,5.8,5.9,12.6,5.7,19.6c0,7.4-2.2,14.6-6.3,20.7c-4.2,6.5-10.2,11.5-18.1,15.1c-8.4,3.7-17.4,5.5-26.6,5.4  c-12.5,0-22.9-1.8-31.3-5.4c-8.1-3.4-15-9.1-19.8-16.4C2197.1,1040.6,2194.5,1032,2194.4,1023.1z"
   id="path133" />
<path
   class="st13"
   d="M2376.3,1067.4v-33h-59.8v-15.5l62.9-89.3h13.8v89.3h18.6v15.5h-18.6v33H2376.3z M2376.3,1018.9v-62.1  l-43.1,62.1H2376.3z"
   id="path134" />
<path
   class="st13"
   d="M2432.8,947.9v-19.6h18.1v15.5c0,8.4-1,14.5-2.9,18.1c-2.8,5.1-7.2,9.2-12.6,11.5l-4.1-6.7  c3.2-1.2,5.9-3.5,7.6-6.5c1.7-3,2.6-7.1,2.8-12.3L2432.8,947.9z"
   id="path135" />
<path
   class="st13"
   d="M1921.1,5216l17.2-1.5c0.8,6.9,2.7,12.5,5.7,17c3,4.4,7.6,8,13.9,10.7c6.7,2.8,13.9,4.2,21.2,4.1  c6.3,0.1,12.5-0.9,18.4-3.1c5.3-2.1,9.3-4.9,11.9-8.5c2.5-3.4,3.9-7.5,3.9-11.8c0.1-4.1-1.2-8.1-3.8-11.3c-2.5-3.2-6.6-5.9-12.4-8.1  c-3.7-1.4-11.9-3.7-24.5-6.7c-12.6-3-21.5-5.9-26.6-8.6c-6.6-3.4-11.5-7.7-14.7-12.8c-3.2-5.1-4.9-11.1-4.8-17.1  c0-6.9,2.1-13.7,5.9-19.5c3.9-6,9.7-10.6,17.3-13.8c8-3.2,16.6-4.8,25.3-4.7c10.2,0,19.2,1.6,27,4.9c7.3,2.9,13.6,8,18,14.5  c4.2,6.5,6.5,14,6.7,21.7l-17.5,1.3c-0.9-8.7-4.1-15.3-9.5-19.7s-13.4-6.7-24.1-6.7c-11,0-19,2-24.1,6.1c-5,4-7.5,8.9-7.6,14.6  c-0.1,4.7,1.8,9.1,5.4,12.2c3.5,3.2,12.7,6.5,27.5,9.8c14.8,3.3,25,6.3,30.5,8.8c8,3.7,13.9,8.4,17.8,14.1  c3.9,5.8,5.9,12.6,5.7,19.6c0,7.4-2.2,14.6-6.3,20.7c-4.2,6.5-10.2,11.5-18.1,15.1c-8.4,3.7-17.4,5.5-26.6,5.4  c-12.5,0-22.9-1.8-31.3-5.4c-8.1-3.4-15-9.1-19.8-16.4C1923.8,5233.4,1921.2,5224.8,1921.1,5216z"
   id="path136" />
<path
   class="st13"
   d="M2137.7,5244v16.3h-91.1c-0.2-4,0.5-8,1.9-11.8c2.6-6.7,6.4-12.9,11.1-18.3c5.1-6,12.5-13,22.1-20.9  c15-12.3,25.1-22,30.4-29.2c5.3-7.2,7.9-14,7.9-20.3c0.1-6.4-2.5-12.6-7.2-17c-4.8-4.6-11-6.9-18.7-6.9c-8.1,0-14.7,2.4-19.5,7.3  c-4.9,4.9-7.4,11.7-7.4,20.3l-17.4-1.8c1.2-13,5.7-22.9,13.5-29.6s18.2-10.2,31.3-10.2c13.2,0,23.7,3.7,31.4,11  c7.6,7,11.8,16.9,11.5,27.3c0,5.6-1.2,11.1-3.4,16.3c-2.3,5.3-6,10.9-11.2,16.8c-5.2,5.9-13.9,14-26.1,24.3  c-10.1,8.5-16.7,14.3-19.6,17.3c-2.7,2.8-5.1,5.9-7.1,9.2L2137.7,5244z"
   id="path137" />
<path
   class="st13"
   d="M2159.5,5140.8v-19.6h18.1v15.5c0,8.4-1,14.5-2.9,18.1c-2.8,5.1-7.2,9.2-12.6,11.5l-4.1-6.7  c3.2-1.2,5.9-3.5,7.6-6.5c1.7-3,2.6-7.1,2.8-12.3H2159.5z"
   id="path138" />
<path
   class="st13"
   d="M1177.2,4215.2l17.2-1.5c0.8,6.9,2.7,12.5,5.7,17c3,4.4,7.6,8,13.9,10.7c6.7,2.8,13.9,4.2,21.2,4.1  c6.3,0.1,12.5-0.9,18.4-3.1c5.3-2.1,9.3-4.9,11.9-8.5c2.5-3.4,3.9-7.6,3.8-11.8c0.1-4.1-1.2-8.1-3.8-11.3c-2.5-3.2-6.6-5.9-12.4-8.1  c-3.7-1.4-11.9-3.7-24.5-6.7c-12.6-3-21.5-5.9-26.6-8.6c-6.6-3.4-11.5-7.7-14.7-12.8c-3.2-5.1-4.9-11.1-4.8-17.1  c0-6.9,2.1-13.7,5.9-19.5c3.9-6,9.7-10.6,17.3-13.8c8-3.2,16.6-4.8,25.3-4.7c10.2,0,19.2,1.6,27,4.9c7.3,2.9,13.6,8,18,14.5  c4.2,6.5,6.5,14,6.7,21.7l-17.5,1.3c-0.9-8.7-4.1-15.3-9.5-19.7c-5.4-4.5-13.4-6.7-24.1-6.7c-11,0-19,2-24.1,6.1  c-5,4-7.5,8.9-7.6,14.6c-0.1,4.7,1.8,9.1,5.4,12.2c3.5,3.2,12.7,6.5,27.5,9.8c14.8,3.3,25,6.3,30.5,8.8c8,3.7,13.9,8.4,17.8,14.1  c3.9,5.8,5.9,12.6,5.8,19.6c0,7.4-2.2,14.6-6.3,20.7c-4.2,6.5-10.2,11.5-18.1,15.1c-8.4,3.7-17.4,5.5-26.6,5.4  c-12.5,0-22.9-1.8-31.3-5.4c-8.1-3.4-15-9.1-19.8-16.4C1180,4232.6,1177.3,4224,1177.2,4215.2z"
   id="path139" />
<path
   class="st13"
   d="M1368.6,4259.5h-16.9v-107.8c-4.9,4.5-10.3,8.4-16,11.7c-5.7,3.4-11.6,6.3-17.8,8.7v-16.4  c9-4.2,17.4-9.6,24.8-16.2c7.1-6.3,12.1-12.5,15-18.4h10.9V4259.5z"
   id="path140" />
<path
   class="st13"
   d="M1415.6,4139.9v-19.6h18.1v15.5c0,8.4-1,14.5-2.9,18.1c-2.8,5.1-7.2,9.2-12.6,11.5l-4.1-6.7  c3.2-1.2,5.9-3.5,7.6-6.5c1.7-3,2.6-7.1,2.8-12.3H1415.6z"
   id="path141" />
<path
   class="st13"
   d="M1132.9,2557.1l17.2-1.5c0.8,6.9,2.7,12.5,5.7,17c3,4.4,7.6,8,13.9,10.7c6.7,2.8,13.9,4.2,21.2,4.1  c6.3,0.1,12.5-0.9,18.4-3.1c5.3-2.1,9.3-4.9,11.9-8.5c2.5-3.4,3.9-7.6,3.8-11.8c0.1-4.1-1.2-8.1-3.8-11.3c-2.5-3.2-6.6-5.9-12.4-8.1  c-3.7-1.4-11.9-3.7-24.5-6.7c-12.6-3-21.5-5.9-26.6-8.6c-6.6-3.4-11.5-7.7-14.7-12.8c-3.2-5.1-4.9-11.1-4.8-17.1  c0-6.9,2.1-13.7,5.9-19.5c3.9-6,9.7-10.6,17.3-13.8c8-3.2,16.6-4.8,25.3-4.7c10.2,0,19.2,1.6,27,4.9c7.3,2.9,13.6,8,18,14.5  c4.2,6.5,6.5,14,6.7,21.7l-17.5,1.3c-0.9-8.7-4.1-15.3-9.5-19.7c-5.4-4.5-13.4-6.7-24.1-6.7c-11,0-19,2-24.1,6.1  c-5,4-7.5,8.9-7.6,14.6c-0.1,4.7,1.8,9.1,5.4,12.2c3.5,3.2,12.7,6.5,27.5,9.8s25,6.3,30.5,8.8c8,3.7,13.9,8.4,17.8,14.1  c3.9,5.8,5.9,12.6,5.8,19.6c0,7.4-2.2,14.6-6.3,20.7c-4.2,6.5-10.2,11.5-18.1,15.1c-8.4,3.7-17.4,5.5-26.6,5.4  c-12.5,0-22.9-1.8-31.3-5.4c-8.1-3.4-15-9.1-19.8-16.4C1135.7,2574.5,1133.1,2565.9,1132.9,2557.1z"
   id="path142" />
<path
   class="st13"
   d="M1260.6,2533.4c0-16.3,1.7-29.4,5-39.3c3.4-9.9,8.3-17.6,14.9-23c6.6-5.4,14.9-8.1,24.9-8.1  c6.8-0.1,13.4,1.4,19.5,4.5c5.6,3,10.4,7.5,13.8,12.9c3.9,6.3,6.8,13.2,8.6,20.5c2.1,8,3.1,18.9,3.1,32.6c0,16.2-1.7,29.2-5,39.1  c-3.3,9.9-8.3,17.6-14.9,23c-6.6,5.4-15,8.1-25,8.1c-13.3,0-23.7-4.8-31.3-14.3C1265.2,2578,1260.6,2559.3,1260.6,2533.4z   M1278,2533.4c0,22.6,2.6,37.7,7.9,45.2c5.3,7.5,11.8,11.2,19.6,11.2c7.8,0,14.3-3.8,19.6-11.3c5.3-7.5,7.9-22.6,7.9-45.1  c0-22.7-2.6-37.7-7.9-45.2c-5.3-7.5-11.9-11.2-19.8-11.2c-7.8,0-14,3.3-18.6,9.9C1280.9,2495.3,1278,2510.8,1278,2533.4z"
   id="path143" />
<path
   class="st13"
   d="M1371.3,2481.8v-19.6h18.1v15.5c0,8.4-1,14.4-2.9,18.1c-2.8,5.1-7.2,9.2-12.6,11.5l-4.1-6.7  c3.2-1.2,5.9-3.5,7.6-6.5c1.7-3,2.6-7.1,2.8-12.3L1371.3,2481.8z"
   id="path144" />
</svg>
