<?xml version="1.0" encoding="UTF-8" standalone="no"?>
<!-- Generator: Adobe Illustrator 24.0.2, SVG Export Plug-In . SVG Version: 6.00 Build 0)  -->

<svg
   version="1.1"
   id="svg8"
   x="0px"
   y="0px"
   viewBox="0 0 3000 2000"
   xml:space="preserve"
   sodipodi:docname="Calib.svg"
   inkscape:version="1.4 (86a8ad7, 2024-10-11)"
   width="3000mm"
   height="2000mm"
   xmlns:inkscape="http://www.inkscape.org/namespaces/inkscape"
   xmlns:sodipodi="http://sodipodi.sourceforge.net/DTD/sodipodi-0.dtd"
   xmlns="http://www.w3.org/2000/svg"
   xmlns:svg="http://www.w3.org/2000/svg"><defs
   id="defs3"><rect
     x="6768"
     y="3552"
     width="656"
     height="560"
     id="rect10" /><rect
     x="6768"
     y="3552"
     width="656"
     height="560"
     id="rect10-1" /><rect
     x="6768"
     y="3552"
     width="656"
     height="560"
     id="rect10-2" /><rect
     x="6768"
     y="3552"
     width="656"
     height="560"
     id="rect10-21" /><rect
     x="6768"
     y="3552"
     width="656"
     height="560"
     id="rect10-5" /><rect
     x="6768"
     y="3552"
     width="656"
     height="560"
     id="rect10-18" /><rect
     x="6768"
     y="3552"
     width="656"
     height="560"
     id="rect10-9" /></defs><sodipodi:namedview
   id="namedview3"
   pagecolor="#505050"
   bordercolor="#eeeeee"
   borderopacity="1"
   inkscape:showpageshadow="false"
   inkscape:pageopacity="0"
   inkscape:pagecheckerboard="true"
   inkscape:deskcolor="#505050"
   inkscape:zoom="0.125"
   inkscape:cx="7060"
   inkscape:cy="4852"
   inkscape:window-width="1920"
   inkscape:window-height="1057"
   inkscape:window-x="2552"
   inkscape:window-y="247"
   inkscape:window-maximized="1"
   inkscape:current-layer="layer1"
   inkscape:document-units="mm"
   borderlayer="true"
   labelstyle="default"
   inkscape:antialias-rendering="true"
   inkscape:clip-to-page="false"
   showguides="true" />
<style
   type="text/css"
   id="style1">
	.st0{fill:#05050A;}
	.st1{display:none;}
	.st2{display:inline;}
	.st3{fill:none;stroke:#005B8C;stroke-width:14.1732;stroke-linecap:square;stroke-miterlimit:11.3386;}
	.st4{fill:#005B8C;fill-opacity:0.3;stroke:#005B8C;stroke-width:14.1732;stroke-linecap:square;stroke-miterlimit:11.3386;}
	.st5{fill:none;stroke:#F7B500;stroke-width:14.1732;stroke-linecap:square;stroke-miterlimit:11.3386;}
	.st6{fill:#F7B500;fill-opacity:0.3;stroke:#F7B500;stroke-width:14.1732;stroke-linecap:square;stroke-miterlimit:11.3386;}
	.st7{fill:#F7B500;fill-opacity:0.3;stroke:#F7B500;stroke-width:13.9249;stroke-linecap:square;stroke-miterlimit:11.3386;}
	.st8{fill:#005B8C;fill-opacity:0.3;stroke:#005B8C;stroke-width:13.986;stroke-linecap:square;stroke-miterlimit:11.3386;}
	.st9{fill:#005B8C;fill-opacity:0.3;stroke:#005B8C;stroke-width:13.9249;stroke-linecap:square;stroke-miterlimit:11.3386;}
	.st10{fill:#F7B500;fill-opacity:0.3;stroke:#F7B500;stroke-width:14.0484;stroke-linecap:square;stroke-miterlimit:11.3386;}
	.st11{fill:#005B8C;fill-opacity:0.3;stroke:#005B8C;stroke-width:14.0484;stroke-linecap:square;stroke-miterlimit:11.3386;}
	
		.st12{fill-rule:evenodd;clip-rule:evenodd;fill:#005B8C;fill-opacity:0.3;stroke:#005B8C;stroke-width:14.0484;stroke-linecap:square;stroke-miterlimit:11.3386;}
	.st13{fill:#C8C8C8;}
	.st14{fill:#787878;}
	.st15{fill:none;stroke:#787878;stroke-width:7.6987;stroke-miterlimit:10.5087;}
	.st16{opacity:0.5;}
	.st17{fill:none;stroke:#FFFFFF;stroke-width:15;stroke-linejoin:round;stroke-miterlimit:11.3386;stroke-opacity:0.6;}
	.st18{fill:#001F1D;}
	.st19{fill:#001F1D;stroke:#008000;stroke-width:15;stroke-linecap:square;stroke-miterlimit:11.3386;}
	.st20{opacity:0.5;fill:#B5B0A1;}
	.st21{fill:#664600;}
	.st22{fill:#F7B500;}
	.st23{fill:#00374C;}
	.st24{fill:#005B8C;}
</style>
<rect
   y="-7.0499161e-16"
   class="st0"
   width="3000"
   height="2000"
   id="rect1"
   style="fill:#000000;fill-opacity:1;stroke-width:0.352775"
   x="-4.8541594"
   inkscape:label="Background"
   sodipodi:insensitive="true" />

<g
   id="Coords"
   transform="matrix(0.35277505,0,0,0.35277505,-4.8541444,0)">
	<g
   id="g72"
   transform="matrix(1.4600717,0,0,1.4600717,-1766.3268,-851.68502)">
		<path
   id="path72"
   class="st13"
   d="m 4063.9,2674.2 18.6,-25.1 -16.4,-23.1 h 7.6 l 8.7,12.4 c 1.8,2.6 3.1,4.5 3.8,5.9 1.2,-1.9 2.5,-3.7 3.8,-5.5 l 9.7,-12.8 h 6.9 l -16.9,22.7 18.3,25.5 h -7.9 L 4088,2657 c -0.7,-1 -1.4,-2.1 -2.1,-3.2 -1.1,1.8 -1.8,3 -2.3,3.6 l -12.1,16.8 z" />
	</g>
	<g
   id="g73"
   transform="matrix(1.5592465,0,0,1.5592465,-2409.6812,-1607.8895)">
		<path
   id="path73"
   class="st13"
   d="M 4374.4,2822.4 V 2802 l -18.6,-27.8 h 7.7 l 9.5,14.5 c 1.8,2.7 3.4,5.4 4.9,8.2 1.4,-2.5 3.2,-5.4 5.3,-8.5 l 9.3,-14.2 h 7.4 l -19.2,27.8 v 20.4 z" />
	</g>
	<rect
   id="rect73"
   x="4247.6001"
   y="2831.2"
   class="st14"
   width="7.6999998"
   height="291" />
	<rect
   id="rect74"
   x="3962.5"
   y="2827.5"
   class="st14"
   width="288.89999"
   height="7.6999998" />
	<path
   id="path74"
   class="st14"
   d="m 4489.6,2835.2 h -238.1 c -2.1,0 -3.8,-1.7 -3.8,-3.8 v -244.6 c 0,-2.1 1.7,-3.8 3.8,-3.8 2.1,0 3.8,1.7 3.8,3.8 v 240.7 h 234.3 c 2.1,0 3.8,1.7 3.8,3.8 0,2.2 -1.7,3.9 -3.8,3.9 z" />
	<polygon
   id="polygon74"
   class="st14"
   points="4289.8,3082.1 4251.4,3148.6 4213.1,3082.1 " />
	<polygon
   id="polygon75"
   class="st14"
   points="4478.3,2869.7 4544.8,2831.3 4478.3,2792.9 " />
	<path
   id="path75"
   class="st14"
   d="m 4443.8,2904.4 c -5,43 -18.3,68.5 -44.5,85.1 -26.8,17 -68.3,24.6 -134.5,24.6 h -0.8 v -7.7 h 0.8 c 135.6,0 163.3,-33.2 171.4,-102.9 z" />
	<polygon
   id="polygon76"
   class="st14"
   points="4477.1,2917.3 4442.6,2848.7 4400.4,2912.9 " />
	<path
   id="path76"
   class="st15"
   d="M 4429.5,2750" />
	<path
   id="path77"
   class="st15"
   d="M 4250.5,2638.8" />
	<g
   id="g78"
   transform="matrix(1.4651947,0,0,1.4651947,-2361.104,-862.72604)">
		<path
   id="path78"
   class="st13"
   d="m 4628.6,2656.4 c 0,-16.6 5.2,-24.9 15.7,-24.9 10.5,0 15.7,8.3 15.7,24.9 0,16.6 -5.2,24.9 -15.7,24.9 -10.5,0 -15.7,-8.3 -15.7,-24.9 z m 6.1,-2.4 h 19.2 c -0.2,-6.9 -1.2,-11.5 -3,-14 -1.5,-2.3 -4,-3.7 -6.7,-3.7 -6.1,0.1 -9.3,5.9 -9.5,17.7 z m 19.3,4.8 h -19.2 c 0.2,11.8 3.5,17.7 9.6,17.7 6.1,0 9.3,-5.9 9.6,-17.7 z" />
	</g>
</g>
<g
   id="layer1"
   inkscape:groupmode="layer"
   inkscape:label="zones"
   transform="translate(4.2773438e-5)">
	<g
   id="layer12"
   inkscape:label="stock"
   class="st16"
   transform="matrix(0.35277505,0,0,0.35277505,-4.8541872,0)">
		<path
   id="path2-2"
   class="st17"
   d="M 270.2,2132.7 H 696.8 M 270.2,2416.9 H 696.8 M 270.2,2274.8 h 426.6 m -425.1,281.3 v -565.4 h 423.6 v 565.4 z" />
		<path
   id="path2-2-8"
   class="st17"
   d="M 270.2,4406.1 H 696.8 M 270.2,4690.3 H 696.8 M 270.2,4548.2 h 426.6 m -425.1,281.3 v -565.4 h 423.6 v 565.4 z" />
		<path
   id="path2-2-81"
   class="st17"
   d="m 7807.1,4406.1 h 426.6 m -426.6,284.2 h 426.6 m -426.6,-142.1 h 426.6 m -425.1,281.3 v -565.4 h 423.6 v 565.4 z" />
		<path
   id="path2-2-0"
   class="st17"
   d="m 7807.1,2132.7 h 426.6 m -426.6,284.2 h 426.6 m -426.6,-142.1 h 426.6 m -425.1,281.3 v -565.4 h 423.6 v 565.4 z" />
		<path
   id="path2-2-4"
   class="st17"
   d="m 5388.2,3197 v 426.3 M 5103.8,3197 v 426.3 M 5246,3197 v 426.3 m -281.5,-424.8 h 565.8 v 423.3 h -565.8 z" />
		<path
   id="path2-2-40"
   class="st17"
   d="m 3397.3,3197 v 426.3 M 3112.9,3197 v 426.3 M 3255.1,3197 v 426.3 m -281.5,-424.8 h 565.8 v 423.3 h -565.8 z" />
		<path
   id="path2-2-86"
   class="st17"
   d="m 5530.4,4973.1 v 426.3 M 5246,4973.1 v 426.3 m 142.2,-426.3 v 426.3 m -281.5,-424.8 h 565.8 v 423.3 h -565.8 z" />
		<path
   id="path2-2-6"
   class="st17"
   d="m 3255.1,4973.1 v 426.3 m -284.4,-426.3 v 426.3 m 142.2,-426.3 v 426.3 m -281.5,-424.8 h 565.8 v 423.3 h -565.8 z" />
	</g>
	<g
   id="layer11"
   inkscape:label="Garde_manger"
   transform="matrix(0.35277505,0,0,0.35277505,-4.8541872,0)">
		<g
   id="g64"
   inkscape:label="rang_bas">
			<rect
   id="rect20"
   x="3981.8"
   y="5129.3999"
   inkscape:label="bas_centre"
   class="st18"
   width="540.40002"
   height="539.90002">
			</rect>
			<rect
   id="rect23"
   x="1706.5"
   y="5129.3999"
   inkscape:label="bas_gauche"
   class="st18"
   width="540.40002"
   height="539.90002">
			</rect>
			<rect
   id="rect24"
   x="6257.1001"
   y="5129.3999"
   inkscape:label="bas_droite"
   class="st18"
   width="540.40002"
   height="539.90002">
			</rect>
			<rect
   id="rect83"
   x="3981.8"
   y="5129.3999"
   inkscape:label="bas_centre"
   class="st19"
   width="540.40002"
   height="539.90002">
			</rect>
			<rect
   id="rect85"
   x="1706.5"
   y="5129.3999"
   inkscape:label="bas_gauche"
   class="st19"
   width="540.40002"
   height="539.90002">
			</rect>
			<rect
   id="rect87"
   x="6257.1001"
   y="5129.3999"
   inkscape:label="bas_droite"
   class="st19"
   width="540.40002"
   height="539.90002">
			</rect>
		</g>
		<g
   id="g66"
   inkscape:label="rang_milieu">
			<rect
   id="rect11"
   y="3140.1001"
   inkscape:label="milieu_ext_gauche"
   class="st18"
   width="540.40002"
   height="539.90002"
   x="0">
			</rect>
			<rect
   id="rect13"
   x="3981.8"
   y="3140.1001"
   inkscape:label="milieu_centre"
   class="st18"
   width="540.40002"
   height="539.90002">
			</rect>
			<rect
   id="rect14"
   x="1990.9"
   y="3140.1001"
   inkscape:label="milieu_gauche"
   class="st18"
   width="540.40002"
   height="539.90002">
			</rect>
			<rect
   id="rect15"
   x="7963.6001"
   y="3140.1001"
   inkscape:label="milieu_ext_droite"
   class="st18"
   width="540.40002"
   height="539.90002">
			</rect>
			<rect
   id="rect16"
   x="5972.7002"
   y="3140.1001"
   inkscape:label="miieu_droite"
   class="st18"
   width="540.40002"
   height="539.90002">
			</rect>
			<rect
   id="rect78"
   y="3140.1001"
   inkscape:label="milieu_ext_gauche"
   class="st19"
   width="540.40002"
   height="539.90002"
   x="0">
			</rect>
			<rect
   id="rect79"
   x="3981.8"
   y="3140.1001"
   inkscape:label="milieu_centre"
   class="st19"
   width="540.40002"
   height="539.90002">
			</rect>
			<rect
   id="rect82"
   x="1990.9"
   y="3140.1001"
   inkscape:label="milieu_gauche"
   class="st19"
   width="540.40002"
   height="539.90002">
			</rect>
			<rect
   id="rect84"
   x="7963.6001"
   y="3140.1001"
   inkscape:label="milieu_ext_droite"
   class="st19"
   width="540.40002"
   height="539.90002">
			</rect>
			<rect
   id="rect86"
   x="5972.7002"
   y="3140.1001"
   inkscape:label="miieu_droite"
   class="st19"
   width="540.40002"
   height="539.90002">
			</rect>
		</g>
		<g
   id="g65"
   inkscape:label="rang_haut">
			<path
   id="rect4"
   inkscape:label="haut_gauche"
   class="st18"
   d="M 3811.1,1832.9 H 3270.7 V 1293 h 540.4 z" />
			<path
   id="rect9"
   inkscape:label="haut_droite"
   class="st18"
   d="M 5233.2,1832.9 H 4692.8 V 1293 h 540.4 z" />
			<rect
   id="rect80"
   x="3270.7"
   y="1293"
   inkscape:label="haut_gauche"
   class="st19"
   width="540.40002"
   height="539.90002">
			</rect>
			<rect
   id="rect81"
   x="4692.7998"
   y="1293"
   inkscape:label="haut_droite"
   class="st19"
   width="540.40002"
   height="539.90002">
			</rect>
		</g>
	</g>
	<g
   id="layer10"
   inkscape:label="Grenier"
   class="st16"
   transform="matrix(0.35277505,0,0,0.35277505,-4.8541872,0)">
		<rect
   id="rect12166"
   x="1700.8"
   inkscape:label="tasseau_gauche"
   class="st20"
   width="5102.3999"
   height="1275.6"
   y="0">
		</rect>
	</g>
	<g
   id="layer7"
   transform="matrix(0.35277505,0,0,0.35277505,-345.42544,-14.111002)"
   inkscape:label="Nid_jaune">
		<g
   id="rect64">
			<rect
   x="972.90002"
   y="47.5"
   class="st21"
   width="1685.8"
   height="1260.6"
   id="rect2" />
			<path
   class="st22"
   d="M 2651.2,55 V 1300.6 H 980.4 V 55 h 1670.8 m 15,-15 H 965.4 v 1275.6 h 1700.8 z"
   id="path2" />
		</g>
	</g>
	<g
   id="layer9"
   inkscape:label="Nid_bleu"
   transform="matrix(0.35277505,0,0,0.35277505,-4.8541872,0)">
		<g
   id="rect5">
			<rect
   x="6810.6001"
   y="7.5"
   class="st23"
   width="1685.8"
   height="1260.6"
   id="rect3" />
			<path
   class="st24"
   d="M 8488.9,15 V 1260.6 H 6818.1 V 15 h 1670.8 m 15,-15 H 6803.1 v 1275.6 h 1700.8 z"
   id="path3" />
		</g>
	</g>
<rect
   style="fill:none;fill-opacity:1;stroke:#ffffff;stroke-width:5;stroke-dasharray:none;stroke-opacity:1"
   id="rect7"
   width="1002.826"
   height="2.4486461"
   x="1190.8619"
   y="873.7757" /><rect
   style="fill:none;fill-opacity:1;stroke:#ffffff;stroke-width:5;stroke-dasharray:none;stroke-opacity:1"
   id="rect8"
   width="822.59766"
   height="0.225631"
   x="1469.3595"
   y="1552.5" /></g>
<rect
   style="fill:#36a8b6;fill-opacity:1;stroke:#1a1a1a;stroke-width:0"
   id="rect6"
   width="100"
   height="100"
   x="550"
   y="550"
   inkscape:label="Aruco 1" /><rect
   style="fill:#36a8b6;fill-opacity:1;stroke:#1a1a1a;stroke-width:0"
   id="rect6-0"
   width="100"
   height="100"
   x="2350"
   y="1350"
   inkscape:label="Aruco 1" /><rect
   style="fill:#36a8b6;fill-opacity:1;stroke:#1a1a1a;stroke-width:0"
   id="rect6-9"
   width="100"
   height="100"
   x="550"
   y="1350"
   inkscape:label="Aruco 1" /><rect
   style="fill:#36a8b6;fill-opacity:1;stroke:#1a1a1a;stroke-width:0"
   id="rect6-4"
   width="100"
   height="100"
   x="2350"
   y="550"
   inkscape:label="Aruco 1" /><circle
   style="fill:none;fill-opacity:1;stroke:#ffffff;stroke-width:4;stroke-dasharray:none;stroke-opacity:1"
   id="path6"
   cx="2400"
   cy="600"
   r="300" /><circle
   style="fill:none;fill-opacity:1;stroke:#ffffff;stroke-width:4.05169;stroke-dasharray:none;stroke-opacity:1"
   id="path6-8"
   cx="2400"
   cy="600"
   r="547.97418" /><circle
   style="fill:none;fill-opacity:1;stroke:#ffffff;stroke-width:4;stroke-dasharray:none;stroke-opacity:1"
   id="path6-82"
   cx="2400"
   cy="1400"
   r="300" /><circle
   style="fill:none;fill-opacity:1;stroke:#ffffff;stroke-width:4.05169;stroke-dasharray:none;stroke-opacity:1"
   id="path6-8-4"
   cx="2400"
   cy="1400"
   r="547.97418" /><circle
   style="fill:none;fill-opacity:1;stroke:#fa31ff;stroke-width:4.99999;stroke-dasharray:none;stroke-opacity:1"
   id="path8"
   cx="2603.5"
   cy="179.91667"
   r="38.099998"
   transform="translate(4.2773439e-5)" /><circle
   style="fill:none;fill-opacity:1;stroke:#fa31ff;stroke-width:4.99999;stroke-dasharray:none;stroke-opacity:1"
   id="path8-1"
   cx="2550"
   cy="875"
   r="38.099998" /><circle
   style="fill:none;fill-opacity:1;stroke:#fa31ff;stroke-width:4.99999;stroke-dasharray:none;stroke-opacity:1"
   id="path8-7"
   cx="2550"
   cy="1150"
   r="38.099998" /><circle
   style="fill:none;fill-opacity:1;stroke:#fa31ff;stroke-width:4.99999;stroke-dasharray:none;stroke-opacity:1"
   id="path8-11"
   cx="2150"
   cy="1550"
   r="38.099998" /><circle
   style="fill:none;fill-opacity:1;stroke:#fa31ff;stroke-width:4.99999;stroke-dasharray:none;stroke-opacity:1"
   id="path8-5"
   cx="1800"
   cy="1550"
   r="38.099998" /><circle
   style="fill:none;fill-opacity:1;stroke:#fa31ff;stroke-width:4.99999;stroke-dasharray:none;stroke-opacity:1"
   id="path8-2"
   cx="1850"
   cy="875"
   r="38.099998" /><circle
   style="fill:none;fill-opacity:1;stroke:#fa31ff;stroke-width:4.99999;stroke-dasharray:none;stroke-opacity:1"
   id="path8-76"
   cx="2275"
   cy="875"
   r="38.099998" /><text
   xml:space="preserve"
   transform="matrix(0.26458333,0,0,0.26458333,23.283333,-16.933333)"
   id="text8"
   style="font-weight:bold;font-size:333.333px;font-family:Arial;-inkscape-font-specification:'Arial Bold';text-align:start;writing-mode:lr-tb;direction:ltr;white-space:pre;shape-inside:url(#rect10);display:inline;fill:#ffffff;fill-opacity:1;stroke:none;stroke-width:18.8976;stroke-dasharray:none;stroke-opacity:1"><tspan
     x="6768"
     y="3852.2512"
     id="tspan2">1</tspan></text><text
   xml:space="preserve"
   transform="matrix(0.26458333,0,0,0.26458333,788.36123,-687.0351)"
   id="text8-5"
   style="font-weight:bold;font-size:333.333px;font-family:Arial;-inkscape-font-specification:'Arial Bold';text-align:start;writing-mode:lr-tb;direction:ltr;white-space:pre;shape-inside:url(#rect10-9);display:inline;fill:#ffffff;fill-opacity:1;stroke:none;stroke-width:18.8976;stroke-dasharray:none;stroke-opacity:1"><tspan
     x="6768"
     y="3852.2512"
     id="tspan3">0</tspan></text><text
   xml:space="preserve"
   transform="matrix(0.26458333,0,0,0.26458333,442.81539,-5.4684328)"
   id="text8-4"
   style="font-weight:bold;font-size:333.333px;font-family:Arial;-inkscape-font-specification:'Arial Bold';text-align:start;writing-mode:lr-tb;direction:ltr;white-space:pre;shape-inside:url(#rect10-1);display:inline;fill:#ffffff;fill-opacity:1;stroke:none;stroke-width:18.8976;stroke-dasharray:none;stroke-opacity:1"><tspan
     x="6768"
     y="3852.2512"
     id="tspan4">2</tspan></text><text
   xml:space="preserve"
   transform="matrix(0.26458333,0,0,0.26458333,713.74873,-9.7017631)"
   id="text8-3"
   style="font-weight:bold;font-size:333.333px;font-family:Arial;-inkscape-font-specification:'Arial Bold';text-align:start;writing-mode:lr-tb;direction:ltr;white-space:pre;shape-inside:url(#rect10-2);display:inline;fill:#ffffff;fill-opacity:1;stroke:none;stroke-width:18.8976;stroke-dasharray:none;stroke-opacity:1"><tspan
     x="6768"
     y="3852.2512"
     id="tspan5">3</tspan></text><text
   xml:space="preserve"
   transform="matrix(0.26458333,0,0,0.26458333,728.5654,263.34824)"
   id="text8-6"
   style="font-weight:bold;font-size:333.333px;font-family:Arial;-inkscape-font-specification:'Arial Bold';text-align:start;writing-mode:lr-tb;direction:ltr;white-space:pre;shape-inside:url(#rect10-21);display:inline;fill:#ffffff;fill-opacity:1;stroke:none;stroke-width:18.8976;stroke-dasharray:none;stroke-opacity:1"><tspan
     x="6768"
     y="3852.2512"
     id="tspan6">4</tspan></text><text
   xml:space="preserve"
   transform="matrix(0.26458333,0,0,0.26458333,345.44873,669.74824)"
   id="text8-7"
   style="font-weight:bold;font-size:333.333px;font-family:Arial;-inkscape-font-specification:'Arial Bold';text-align:start;writing-mode:lr-tb;direction:ltr;white-space:pre;shape-inside:url(#rect10-5);display:inline;fill:#ffffff;fill-opacity:1;stroke:none;stroke-width:18.8976;stroke-dasharray:none;stroke-opacity:1"><tspan
     x="6768"
     y="3852.2512"
     id="tspan7">5</tspan></text><text
   xml:space="preserve"
   transform="matrix(0.26458333,0,0,0.26458333,-12.267936,671.8649)"
   id="text8-9"
   style="font-weight:bold;font-size:333.333px;font-family:Arial;-inkscape-font-specification:'Arial Bold';text-align:start;writing-mode:lr-tb;direction:ltr;white-space:pre;shape-inside:url(#rect10-18);display:inline;fill:#ffffff;fill-opacity:1;stroke:none;stroke-width:18.8976;stroke-dasharray:none;stroke-opacity:1"><tspan
     x="6768"
     y="3852.2512"
     id="tspan8">6</tspan></text></svg>
